<svg width="700" height="327" viewBox="0 0 700 327" fill="none" xmlns="http://www.w3.org/2000/svg">
<path d="M25.6797 45.4333C14.9408 51.0448 9.00541 53.4014 0 55.3102C5.50475 52.9818 8.49716 51.6253 12.346 48.3964C8.92752 49.2495 7.79914 48.8433 6.41993 47.4087C9.61047 45.8704 10.3967 44.3403 10.8645 40.9888C13.8275 38.0257 23.2105 40.0011 24.1982 35.5565C24.1982 35.5565 20.0941 36.7877 16.7497 35.1347C16.2198 34.8727 16.138 34.1743 16.6019 33.8078C20.1946 30.9693 26.0775 33.0562 29.6305 31.1119C27.6586 29.1669 26.7652 28.1816 27.6551 27.6551C41.4086 23.404 49.0111 22.0987 62.2239 23.2105C74.0169 26.3248 80.7234 28.1965 87.9037 25.1859C91.6936 25.1542 93.5865 24.9759 96.299 24.1982C98.8092 25.4077 100.351 25.5013 103.213 25.1859C107.273 25.839 109.326 26.3829 112.596 27.6551L111.608 28.6427C114.333 29.885 116 29.7097 119.016 29.1366L121.485 32.0996C123.117 29.8554 124.28 28.8511 127.905 28.6427C131.897 29.2482 134.166 29.3695 138.275 29.1366L141.732 30.6181C145.218 29.1716 147.226 28.4002 149.634 26.1735C148.774 25.1716 148.211 24.6392 147.165 23.7043C150.746 21.9704 152.439 21.3366 153.585 22.2228C153.216 24.0749 153.259 24.9033 153.585 26.1735L157.041 26.6674L156.054 29.6304C160.004 31.1119 163.461 23.2105 168.4 26.1735C165.78 30.0233 164.952 32.7234 157.041 32.0996L153.585 33.0873L149.634 33.5812L151.609 35.5565C149.589 36.5799 148.446 37.1503 142.72 37.038L141.732 39.5072C136.853 41.016 134.331 40.5896 128.399 48.3964C129.037 50.1066 129.54 51.0185 131.362 52.3471C136.366 54.8204 139.178 56.0027 144.202 57.7794C143.3 67.0294 143.616 69.9619 149.634 60.2486C155.439 56.1622 159.472 54.0684 159.017 48.3964L163.955 42.4703C169.016 40.6717 171.768 40.2446 175.807 45.4333C175.037 47.2578 175.063 48.316 177.289 50.3717C180.621 48.9136 182.189 47.9065 184.696 45.9272C185.76 48.7626 186.267 50.3979 186.178 53.8286C186.195 55.8988 186.798 56.5028 187.66 57.7794C186.107 58.6647 185.928 59.2171 186.178 60.2486C190.667 58.8109 192.43 58.8537 193.092 61.7301C186.955 67.5407 181.885 68.9612 169.881 68.15C163.257 71.1215 161.228 72.4357 160.992 74.0761C166.304 71.7494 169 70.8046 171.857 71.6069L168.894 76.0515C170.67 79.2177 172.525 79.6743 176.795 79.0145C177.567 79.4405 164.007 85.9692 164.943 83.9529C164.943 81.9776 167.552 81.4881 168.894 80.0022C167.906 78.0268 153.091 84.4468 153.585 87.9037C146.211 90.7576 142.427 92.6219 138.769 98.2743C137.863 96.8451 137.439 96.6925 136.794 97.2866C136.934 100.921 136.647 102.58 135.312 104.694L135.246 104.733C129.249 108.242 125.867 110.221 120.991 116.053C122.108 124.333 122.391 128.229 120.003 128.892C117.583 126.417 117.095 124.318 117.534 119.509C116.41 118.153 115.386 117.678 112.596 117.534C110.235 116.55 109.041 116.321 107.163 116.546C104.339 116.813 103.721 117.752 102.719 119.509C99.5055 119.008 97.785 118.556 94.8174 117.534C90.7498 119.349 88.6526 120.506 85.4345 122.966C83.152 127.97 82.1373 130.783 80.4961 135.806C83.4666 146.561 86.2212 149.814 95.8051 143.708C98.2743 137.288 104.034 137.357 103.707 141.238C100.957 145.927 99.6801 148.543 99.7559 153.091C104.765 152.375 107.207 152.395 110.127 154.078C108.884 158.361 108.574 160.739 108.645 164.943C110.413 168.402 111.798 169.376 114.571 170.375C118.308 167.457 120.352 168.152 123.954 171.363C126.287 167.755 127.838 165.963 131.855 163.955L136.3 161.486C135.192 164.922 134.802 166.76 135.806 169.387C136.648 169.132 137.12 168.985 137.782 167.412C137.903 166.423 137.542 166.053 136.794 165.437C138.04 163.944 138.852 163.309 140.745 162.967C143.415 164.873 145.08 165.717 148.646 166.424C156.475 167.272 160.216 168.622 164.449 174.326C167.475 177.145 169.607 177.954 174.326 177.783C179.978 179.958 181.975 182.394 183.215 189.141C179.255 193.211 178.547 194.431 178.77 195.561C179.6 196.339 185.19 188.153 187.166 193.092C186.292 194.675 185.599 195.396 184.203 196.549C185.547 197.015 186.912 196.633 191.116 194.079C193.479 194.339 194.501 194.824 195.561 196.549L196.055 199.512C203.054 197.844 206.712 197.883 211.858 202.969C216.229 204.221 218.476 205.006 218.771 207.907C217.715 212.594 216.04 216.146 209.882 225.191C210.05 235.154 209.812 240.619 203.956 248.402H200.006C196.383 250.102 194.327 250.953 191.116 254.328C191.622 259.033 191.213 261.525 189.141 265.686C182.227 280.995 179.758 276.551 173.338 276.057C180.245 282.851 180.157 285.668 168.894 287.909C169.561 290.494 169.575 291.719 167.906 292.848C165.495 291.807 164.003 291.009 163.461 292.848C164.672 295.541 165.585 296.24 167.412 296.798C166.109 297.923 165.566 298.599 166.424 300.255C164.902 301.678 164.154 302.565 163.461 304.7L167.906 309.144C166.822 311.368 166.192 312.494 165.437 316.552L166.424 319.515L166.42 319.518C163.626 321.167 162.059 322.093 158.523 319.021C156.777 317.615 156.099 316.576 155.066 314.577C153.272 310.045 151.842 308.369 149.14 305.687C150.994 304.503 151.221 303.688 151.609 302.23C150.174 300.169 149.572 298.822 149.14 295.811C146.628 293.889 145.332 292.677 145.189 287.909C143.755 283.702 143.791 281.006 144.202 276.057C141.238 251.859 145.119 253.913 140.745 238.525C137.507 234.185 134.551 232.099 128.399 228.648C123.36 221.511 120.934 217.414 117.534 209.882C114.79 207.077 113.996 205.569 113.583 202.969C114.511 201.071 115.177 199.987 116.546 198.03C115.251 197.376 114.826 196.941 114.571 196.055C113.583 191.61 120.497 188.647 122.473 180.746C120.592 173.224 120.602 171.755 121.485 171.363C119.188 169.204 117.895 168.916 115.559 172.844C109.416 171.249 102.719 167.412 103.707 163.955L99.7559 158.523C88.8913 158.029 91.3606 152.103 85.4345 151.609C83.3139 151.621 82.4627 152.125 80.9899 153.091C75.5576 149.634 69.1377 149.634 62.7178 141.732C64.4607 139.027 64.9396 137.151 58.2732 128.399C55.6032 124.254 54.4479 121.707 53.3348 116.546C50.4824 112.663 49.3961 112.234 49.3841 118.028C51.6819 122.905 52.8981 126.252 54.8163 134.325C52.3362 132.728 51.4385 131.253 50.8656 127.411C48.374 125.685 47.5184 124.322 47.9026 120.497C46.0014 117.122 45.56 114.652 45.4334 109.633C41.1359 107.134 40.2767 104.466 40.4949 98.2743C39.1996 96.9402 39.0929 95.6372 40.0011 92.3482L40.1785 92.052C43.1077 87.1601 44.8039 84.3273 48.8902 80.0022C51.6757 73.9238 53.0091 72.0094 54.3225 75.5576C55.8575 74.5682 56.5666 73.792 57.2855 71.6069C56.981 69.5052 55.3983 67.8067 52.3471 64.6931C53.2085 64.0778 53.4893 63.6665 53.3348 62.7178C52.2793 59.598 52.9469 58.537 55.3102 57.2855C53.9822 56.866 53.7085 54.702 53.3348 50.3717C49.4038 46.8146 45.8782 45.2535 35.0627 43.9518C31.2714 45.8755 29.2206 46.1565 25.6797 45.4333Z" fill="black" fill-opacity="0.3"/>
<path d="M25.6797 45.4333C14.9408 51.0448 9.00541 53.4014 0 55.3102C5.50475 52.9818 8.49716 51.6253 12.346 48.3964C8.92752 49.2495 7.79914 48.8433 6.41993 47.4087C9.61047 45.8704 10.3967 44.3403 10.8645 40.9888C13.8275 38.0257 23.2105 40.0011 24.1982 35.5565C24.1982 35.5565 20.0941 36.7877 16.7497 35.1347C16.2198 34.8727 16.138 34.1743 16.6019 33.8078C20.1946 30.9693 26.0775 33.0562 29.6305 31.1119C27.6586 29.1669 26.7652 28.1816 27.6551 27.6551C41.4086 23.404 49.0111 22.0987 62.2239 23.2105C74.0169 26.3248 80.7234 28.1965 87.9037 25.1859C91.6936 25.1542 93.5865 24.9759 96.299 24.1982C98.8092 25.4077 100.351 25.5013 103.213 25.1859C107.273 25.839 109.326 26.3829 112.596 27.6551L111.608 28.6427C114.333 29.885 116 29.7097 119.016 29.1366L121.485 32.0996C123.117 29.8554 124.28 28.8511 127.905 28.6427C131.897 29.2482 134.166 29.3695 138.275 29.1366L141.732 30.6181C145.218 29.1716 147.226 28.4002 149.634 26.1735C148.774 25.1716 148.211 24.6392 147.165 23.7043C150.746 21.9704 152.439 21.3366 153.585 22.2228C153.216 24.0749 153.259 24.9033 153.585 26.1735L157.041 26.6674L156.054 29.6304C160.004 31.1119 163.461 23.2105 168.4 26.1735C165.78 30.0233 164.952 32.7234 157.041 32.0996L153.585 33.0873L149.634 33.5812L151.609 35.5565C149.589 36.5799 148.446 37.1503 142.72 37.038L141.732 39.5072C136.853 41.016 134.331 40.5896 128.399 48.3964C129.037 50.1066 129.54 51.0185 131.362 52.3471C136.366 54.8204 139.178 56.0027 144.202 57.7794C143.3 67.0294 143.616 69.9619 149.634 60.2486C155.439 56.1622 159.472 54.0684 159.017 48.3964L163.955 42.4703C169.016 40.6717 171.768 40.2446 175.807 45.4333C175.037 47.2578 175.063 48.316 177.289 50.3717C180.621 48.9136 182.189 47.9065 184.696 45.9272C185.76 48.7626 186.267 50.3979 186.178 53.8286C186.195 55.8988 186.798 56.5028 187.66 57.7794C186.107 58.6647 185.928 59.2171 186.178 60.2486C190.667 58.8109 192.43 58.8537 193.092 61.7301C186.955 67.5407 181.885 68.9612 169.881 68.15C163.257 71.1215 161.228 72.4357 160.992 74.0761C166.304 71.7494 169 70.8046 171.857 71.6069L168.894 76.0515C170.67 79.2177 172.525 79.6743 176.795 79.0145C177.567 79.4405 164.007 85.9692 164.943 83.9529C164.943 81.9776 167.552 81.4881 168.894 80.0022C167.906 78.0268 153.091 84.4468 153.585 87.9037C146.211 90.7576 142.427 92.6219 138.769 98.2743C137.863 96.8451 137.439 96.6925 136.794 97.2866C136.934 100.921 136.647 102.58 135.312 104.694L135.246 104.733C129.249 108.242 125.867 110.221 120.991 116.053C122.108 124.333 122.391 128.229 120.003 128.892C117.583 126.417 117.095 124.318 117.534 119.509C116.41 118.153 115.386 117.678 112.596 117.534C110.235 116.55 109.041 116.321 107.163 116.546C104.339 116.813 103.721 117.752 102.719 119.509C99.5055 119.008 97.785 118.556 94.8174 117.534C90.7498 119.349 88.6526 120.506 85.4345 122.966C83.152 127.97 82.1373 130.783 80.4961 135.806C83.4666 146.561 86.2212 149.814 95.8051 143.708C98.2743 137.288 104.034 137.357 103.707 141.238C100.957 145.927 99.6801 148.543 99.7559 153.091C104.765 152.375 107.207 152.395 110.127 154.078C108.884 158.361 108.574 160.739 108.645 164.943C110.413 168.402 111.798 169.376 114.571 170.375C118.308 167.457 120.352 168.152 123.954 171.363C126.287 167.755 127.838 165.963 131.855 163.955L136.3 161.486C135.192 164.922 134.802 166.76 135.806 169.387C136.648 169.132 137.12 168.985 137.782 167.412C137.903 166.423 137.542 166.053 136.794 165.437C138.04 163.944 138.852 163.309 140.745 162.967C143.415 164.873 145.08 165.717 148.646 166.424C156.475 167.272 160.216 168.622 164.449 174.326C167.475 177.145 169.607 177.954 174.326 177.783C179.978 179.958 181.975 182.394 183.215 189.141C179.255 193.211 178.547 194.431 178.77 195.561C179.6 196.339 185.19 188.153 187.166 193.092C186.292 194.675 185.599 195.396 184.203 196.549C185.547 197.015 186.912 196.633 191.116 194.079C193.479 194.339 194.501 194.824 195.561 196.549L196.055 199.512C203.054 197.844 206.712 197.883 211.858 202.969C216.229 204.221 218.476 205.006 218.771 207.907C217.715 212.594 216.04 216.146 209.882 225.191C210.05 235.154 209.812 240.619 203.956 248.402H200.006C196.383 250.102 194.327 250.953 191.116 254.328C191.622 259.033 191.213 261.525 189.141 265.686C182.227 280.995 179.758 276.551 173.338 276.057C180.245 282.851 180.157 285.668 168.894 287.909C169.561 290.494 169.575 291.719 167.906 292.848C165.495 291.807 164.003 291.009 163.461 292.848C164.672 295.541 165.585 296.24 167.412 296.798C166.109 297.923 165.566 298.599 166.424 300.255C164.902 301.678 164.154 302.565 163.461 304.7L167.906 309.144C166.822 311.368 166.192 312.494 165.437 316.552L166.424 319.515L166.42 319.518C163.626 321.167 162.059 322.093 158.523 319.021C156.777 317.615 156.099 316.576 155.066 314.577C153.272 310.045 151.842 308.369 149.14 305.687C150.994 304.503 151.221 303.688 151.609 302.23C150.174 300.169 149.572 298.822 149.14 295.811C146.628 293.889 145.332 292.677 145.189 287.909C143.755 283.702 143.791 281.006 144.202 276.057C141.238 251.859 145.119 253.913 140.745 238.525C137.507 234.185 134.551 232.099 128.399 228.648C123.36 221.511 120.934 217.414 117.534 209.882C114.79 207.077 113.996 205.569 113.583 202.969C114.511 201.071 115.177 199.987 116.546 198.03C115.251 197.376 114.826 196.941 114.571 196.055C113.583 191.61 120.497 188.647 122.473 180.746C120.592 173.224 120.602 171.755 121.485 171.363C119.188 169.204 117.895 168.916 115.559 172.844C109.416 171.249 102.719 167.412 103.707 163.955L99.7559 158.523C88.8913 158.029 91.3606 152.103 85.4345 151.609C83.3139 151.621 82.4627 152.125 80.9899 153.091C75.5576 149.634 69.1377 149.634 62.7178 141.732C64.4607 139.027 64.9396 137.151 58.2732 128.399C55.6032 124.254 54.4479 121.707 53.3348 116.546C50.4824 112.663 49.3961 112.234 49.3841 118.028C51.6819 122.905 52.8981 126.252 54.8163 134.325C52.3362 132.728 51.4385 131.253 50.8656 127.411C48.374 125.685 47.5184 124.322 47.9026 120.497C46.0014 117.122 45.56 114.652 45.4334 109.633C41.1359 107.134 40.2767 104.466 40.4949 98.2743C39.1996 96.9402 39.0929 95.6372 40.0011 92.3482L40.1785 92.052C43.1077 87.1601 44.8039 84.3273 48.8902 80.0022C51.6757 73.9238 53.0091 72.0094 54.3225 75.5576C55.8575 74.5682 56.5666 73.792 57.2855 71.6069C56.981 69.5052 55.3983 67.8067 52.3471 64.6931C53.2085 64.0778 53.4893 63.6665 53.3348 62.7178C52.2793 59.598 52.9469 58.537 55.3102 57.2855C53.9822 56.866 53.7085 54.702 53.3348 50.3717C49.4038 46.8146 45.8782 45.2535 35.0627 43.9518C31.2714 45.8755 29.2206 46.1565 25.6797 45.4333Z" fill="black"/>
<path d="M113.09 24.692L120.003 23.7043C117.61 23.2648 116.424 22.9715 115.065 22.2228L117.04 21.2351L115.065 20.2475C119.38 17.9735 122.025 17.3084 127.905 19.2598C128.864 18.7034 129.524 18.4448 131.362 18.2721L132.349 20.2475C134.16 18.9709 135.227 18.3948 137.288 17.7783C136.856 19.4053 136.5 20.354 135.312 22.2228L138.275 24.1982C135.193 25.8986 133.212 26.558 127.905 25.6797L120.991 27.6551C117.983 26.9129 116.289 26.4577 113.09 24.692Z" fill="black" fill-opacity="0.3"/>
<path d="M113.09 24.692L120.003 23.7043C117.61 23.2648 116.424 22.9715 115.065 22.2228L117.04 21.2351L115.065 20.2475C119.38 17.9735 122.025 17.3084 127.905 19.2598C128.864 18.7034 129.524 18.4448 131.362 18.2721L132.349 20.2475C134.16 18.9709 135.227 18.3948 137.288 17.7783C136.856 19.4053 136.5 20.354 135.312 22.2228L138.275 24.1982C135.193 25.8986 133.212 26.558 127.905 25.6797L120.991 27.6551C117.983 26.9129 116.289 26.4577 113.09 24.692Z" fill="black"/>
<path d="M107.657 22.2228C114.044 19.6716 117.331 18.6906 122.966 17.2844C117.86 14.2461 114.046 15.0837 105.682 20.7413L107.657 22.2228Z" fill="black" fill-opacity="0.3"/>
<path d="M107.657 22.2228C114.044 19.6716 117.331 18.6906 122.966 17.2844C117.86 14.2461 114.046 15.0837 105.682 20.7413L107.657 22.2228Z" fill="black"/>
<path d="M142.226 27.6551L145.683 25.6797L145.189 25.6797C142.933 24.973 142.037 25.3516 140.745 26.6674L142.226 27.6551Z" fill="black" fill-opacity="0.3"/>
<path d="M142.226 27.6551L145.683 25.6797L145.189 25.6797C142.933 24.973 142.037 25.3516 140.745 26.6674L142.226 27.6551Z" fill="black"/>
<path d="M152.103 16.2967C148.317 16.6897 147.165 19.2598 143.214 18.766L146.671 21.729C150.199 19.7309 151.545 18.5551 152.103 16.2967Z" fill="black" fill-opacity="0.3"/>
<path d="M152.103 16.2967C148.317 16.6897 147.165 19.2598 143.214 18.766L146.671 21.729C150.199 19.7309 151.545 18.5551 152.103 16.2967Z" fill="black"/>
<path d="M161.486 17.2844C158.812 18.5396 157.157 18.8977 154.078 19.2598C154.634 17.8444 155.454 17.3393 157.535 16.7906C159.608 16.351 160.447 16.4898 161.486 17.2844Z" fill="black" fill-opacity="0.3"/>
<path d="M161.486 17.2844C158.812 18.5396 157.157 18.8977 154.078 19.2598C154.634 17.8444 155.454 17.3393 157.535 16.7906C159.608 16.351 160.447 16.4898 161.486 17.2844Z" fill="black"/>
<path d="M160.498 22.2228C163.208 19.1399 165.088 17.7756 169.881 16.7906C168.454 18.1091 167.782 18.8925 167.906 20.7413C170.459 18.8578 171.977 18.1182 174.82 17.2844L181.24 20.7413L183.709 19.7536C185.6 21.8882 187.337 22.9684 191.61 24.692V27.6551C193.634 29.7906 194.517 30.4718 196.055 31.6058L194.079 34.075C190.298 32.3592 188.39 31.6962 187.166 33.5812C188.441 36.4013 188.406 37.4582 187.166 38.5196C184.617 37.7842 183.307 37.4763 182.227 38.0257L184.696 40.9888C181.321 41.1457 179.42 41.1625 175.313 35.5565C171.021 36.1616 169.254 36.2243 167.906 35.5565C168.527 34.6535 169.635 34.307 175.807 34.5689L175.866 34.4913C176.725 33.3562 177.224 32.6963 179.758 32.0996C182.385 32.6801 183.353 32.3074 184.696 31.112C180.685 26.8669 178.605 24.596 175.807 23.2105L172.35 24.1982L171.962 24.1957C166.554 24.1619 163.404 24.1422 160.498 22.2228Z" fill="black" fill-opacity="0.3"/>
<path d="M160.498 22.2228C163.208 19.1399 165.088 17.7756 169.881 16.7906C168.454 18.1091 167.782 18.8925 167.906 20.7413C170.459 18.8578 171.977 18.1182 174.82 17.2844L181.24 20.7413L183.709 19.7536C185.6 21.8882 187.337 22.9684 191.61 24.692V27.6551C193.634 29.7906 194.517 30.4718 196.055 31.6058L194.079 34.075C190.298 32.3592 188.39 31.6962 187.166 33.5812C188.441 36.4013 188.406 37.4582 187.166 38.5196C184.617 37.7842 183.307 37.4763 182.227 38.0257L184.696 40.9888C181.321 41.1457 179.42 41.1625 175.313 35.5565C171.021 36.1616 169.254 36.2243 167.906 35.5565C168.527 34.6535 169.635 34.307 175.807 34.5689L175.866 34.4913C176.725 33.3562 177.224 32.6963 179.758 32.0996C182.385 32.6801 183.353 32.3074 184.696 31.112C180.685 26.8669 178.605 24.596 175.807 23.2105L172.35 24.1982L171.962 24.1957C166.554 24.1619 163.404 24.1422 160.498 22.2228Z" fill="black"/>
<path d="M183.215 13.8275C176.782 15.578 172.766 15.7593 164.449 13.8275H163.955C165.314 12.5467 166.225 11.9541 168.4 11.3583C173.605 14.0044 176.993 13.942 182.824 13.8347L183.215 13.8275Z" fill="black" fill-opacity="0.3"/>
<path d="M183.215 13.8275C176.782 15.578 172.766 15.7593 164.449 13.8275H163.955C165.314 12.5467 166.225 11.9541 168.4 11.3583C173.605 14.0044 176.993 13.942 182.824 13.8347L183.215 13.8275Z" fill="black"/>
<path d="M220.747 2.96305L201.487 8.39529C198.524 13.8275 218.278 7.40761 218.278 19.7536C219.903 20.9315 220.782 21.6284 220.747 24.692C219.256 26.4622 217.913 28.0153 214.327 32.0996C214.572 34.8368 214.338 36.236 213.339 38.5196C216.56 43.5453 218.697 44.6257 222.722 45.4333C228.216 37.9856 230.588 35.6967 234.081 33.5812C241.812 32.4971 244.228 31.1944 247.908 28.6428C257.751 26.8589 261.828 25.9646 264.699 24.692C262.192 24.1829 261.011 23.7911 260.748 22.2228C260.485 20.6545 268.156 23.2105 268.156 23.2105C267.349 21.3235 266.339 20.3297 262.723 18.766C271.744 16.0671 274.387 13.5069 275.563 7.40761C278.928 4.347 281.328 3.6254 285.934 2.96305C278.578 2.71823 274.804 2.26511 269.143 0.493841C249.042 4.03862 238.356 4.77114 220.747 2.96305Z" fill="black" fill-opacity="0.3"/>
<path d="M220.747 2.96305L201.487 8.39529C198.524 13.8275 218.278 7.40761 218.278 19.7536C219.903 20.9315 220.782 21.6284 220.747 24.692C219.256 26.4622 217.913 28.0153 214.327 32.0996C214.572 34.8368 214.338 36.236 213.339 38.5196C216.56 43.5453 218.697 44.6257 222.722 45.4333C228.216 37.9856 230.588 35.6967 234.081 33.5812C241.812 32.4971 244.228 31.1944 247.908 28.6428C257.751 26.8589 261.828 25.9646 264.699 24.692C262.192 24.1829 261.011 23.7911 260.748 22.2228C260.485 20.6545 268.156 23.2105 268.156 23.2105C267.349 21.3235 266.339 20.3297 262.723 18.766C271.744 16.0671 274.387 13.5069 275.563 7.40761C278.928 4.347 281.328 3.6254 285.934 2.96305C278.578 2.71823 274.804 2.26511 269.143 0.493841C249.042 4.03862 238.356 4.77114 220.747 2.96305Z" fill="black"/>
<path d="M267.662 33.5812C267.168 33.5812 264.205 36.0504 263.711 36.0504L269.637 38.5196L275.069 37.0381L278.526 34.075L275.563 32.5935L271.612 33.5812H267.662Z" fill="black" fill-opacity="0.3"/>
<path d="M267.662 33.5812C267.168 33.5812 264.205 36.0504 263.711 36.0504L269.637 38.5196L275.069 37.0381L278.526 34.075L275.563 32.5935L271.612 33.5812H267.662Z" fill="black"/>
<path d="M181.733 10.8645L184.696 12.346L199.018 6.41993L211.364 2.96305L216.796 0L200.499 0.987682L186.178 2.96305L196.055 3.45689L195.067 5.43225H183.709L184.696 8.39529H181.24L181.733 9.38298L174.82 10.8645H181.733Z" fill="black" fill-opacity="0.3"/>
<path d="M181.733 10.8645L184.696 12.346L199.018 6.41993L211.364 2.96305L216.796 0L200.499 0.987682L186.178 2.96305L196.055 3.45689L195.067 5.43225H183.709L184.696 8.39529H181.24L181.733 9.38298L174.82 10.8645H181.733Z" fill="black"/>
<path d="M176.301 6.91377L179.758 4.44457H173.832L170.869 6.41993L176.301 6.91377Z" fill="black" fill-opacity="0.3"/>
<path d="M176.301 6.91377L179.758 4.44457H173.832L170.869 6.41993L176.301 6.91377Z" fill="black"/>
<path d="M189.635 75.0638L182.227 74.0761L190.053 67.2284L190.129 70.1254L192.104 71.1131L194.079 72.5946V74.0761L189.635 75.0638Z" fill="black" fill-opacity="0.3"/>
<path d="M189.635 75.0638L182.227 74.0761L190.053 67.2284L190.129 70.1254L192.104 71.1131L194.079 72.5946V74.0761L189.635 75.0638Z" fill="black"/>
<path d="M113.583 135.312L110.127 137.288L114.571 136.3L118.522 137.288L121.979 138.769L123.954 142.226L126.917 141.732L129.88 142.72L132.349 141.238L126.917 138.275L118.522 134.819L113.583 135.312Z" fill="black" fill-opacity="0.3"/>
<path d="M113.583 135.312L110.127 137.288L114.571 136.3L118.522 137.288L121.979 138.769L123.954 142.226L126.917 141.732L129.88 142.72L132.349 141.238L126.917 138.275L118.522 134.819L113.583 135.312Z" fill="black"/>
<path d="M123.954 145.189L121.979 146.177V146.671L123.954 147.658L126.917 147.165L123.954 145.189Z" fill="black" fill-opacity="0.3"/>
<path d="M123.954 145.189L121.979 146.177V146.671L123.954 147.658L126.917 147.165L123.954 145.189Z" fill="black"/>
<path d="M135.312 145.189L130.868 146.177L135.312 146.671H139.757L143.708 145.189L139.757 143.214H134.325L135.312 145.189Z" fill="black" fill-opacity="0.3"/>
<path d="M135.312 145.189L130.868 146.177L135.312 146.671H139.757L143.708 145.189L139.757 143.214H134.325L135.312 145.189Z" fill="black"/>
<path d="M286.428 57.2855H289.391L289.885 58.2732L288.897 60.7424L288.403 63.7055L285.44 64.6932L283.958 65.6808L281.983 65.187V62.7178L282.971 60.7424L281.983 59.7547L283.958 58.7671L286.428 57.2855Z" fill="black" fill-opacity="0.3"/>
<path d="M286.428 57.2855H289.391L289.885 58.2732L288.897 60.7424L288.403 63.7055L285.44 64.6932L283.958 65.6808L281.983 65.187V62.7178L282.971 60.7424L281.983 59.7547L283.958 58.7671L286.428 57.2855Z" fill="black"/>
<path d="M291.86 52.3471L294.329 50.3718L294.823 51.8533L296.798 52.3471L294.329 54.8163L295.811 55.3102L297.786 56.7917L299.268 59.7547L301.243 62.7178L303.712 63.2116L301.737 65.187V66.6685L294.329 67.6562L290.872 68.15L293.341 66.6685L294.823 66.1747L293.341 65.187L291.86 64.6932L292.848 62.7178L293.835 61.7301L295.811 60.2486L294.329 57.2855L291.86 56.7917V54.8163V52.3471Z" fill="black" fill-opacity="0.3"/>
<path d="M291.86 52.3471L294.329 50.3718L294.823 51.8533L296.798 52.3471L294.329 54.8163L295.811 55.3102L297.786 56.7917L299.268 59.7547L301.243 62.7178L303.712 63.2116L301.737 65.187V66.6685L294.329 67.6562L290.872 68.15L293.341 66.6685L294.823 66.1747L293.341 65.187L291.86 64.6932L292.848 62.7178L293.835 61.7301L295.811 60.2486L294.329 57.2855L291.86 56.7917V54.8163V52.3471Z" fill="black"/>
<path d="M317.54 53.8287L320.009 51.8533L319.515 53.3348L319.021 54.8163L319.515 56.7917L320.009 58.2732L320.997 59.2609H322.972H323.96H326.429L328.898 59.7547H330.38L332.355 59.2609L333.836 58.2732H335.318L338.281 59.2609L339.763 58.2732L341.244 56.7917V54.3225L341.738 51.8533H343.219L345.195 52.3471L346.182 51.8533L346.676 50.8656L345.689 49.8779L344.207 47.9026L346.182 47.4087H349.639H353.096L354.578 45.9272L354.084 44.9395H351.615L348.158 45.4334H345.689L343.713 44.9395L342.232 44.4457L340.256 41.9765L341.244 40.0011L342.232 37.5319L344.207 35.5565V33.5812L343.219 33.0873H341.738L340.256 35.0627L338.281 36.5442C337.623 37.2027 336.207 38.5196 335.812 38.5196C335.417 38.5196 334.33 39.178 333.836 39.5073L332.355 41.4826L332.849 43.458L334.824 44.9395L335.812 46.421L334.33 47.9026L332.355 49.8779C331.861 50.5364 330.873 51.9521 330.873 52.3471C330.873 52.841 329.392 53.8287 329.392 54.3225C329.392 54.7176 328.075 55.4748 327.416 55.804H326.429L325.441 54.8163L324.453 52.841L322.972 50.8656L321.49 48.3964L320.503 47.9026L319.515 48.3964L316.552 49.3841H314.577L313.095 47.9026C312.766 47.5733 312.107 46.8161 312.107 46.421C312.107 46.026 311.778 43.9518 311.614 42.9642C311.943 42.4703 312.7 41.3839 313.095 40.9888C313.49 40.5937 315.564 39.8365 316.552 39.5073L320.009 37.5319L321.49 36.5442L324.947 33.5812L330.38 27.6551L332.355 26.1736L337.293 24.1982L341.738 23.7044L347.17 23.2105L352.602 23.7044L358.035 26.6674H360.01L363.467 27.1612L367.911 28.6428L371.862 30.1243L371.368 31.112L369.393 32.0997H366.924C366.43 32.0997 363.467 31.6058 362.973 31.6058C362.578 31.6058 360.833 30.9474 360.01 30.6181H358.035V31.6058L360.01 33.5812C360.668 34.2396 362.084 35.5565 362.479 35.5565C362.973 35.5565 363.961 36.5442 364.455 37.0381C364.948 37.5319 367.418 37.5319 367.911 37.5319C368.306 37.5319 368.734 36.8735 368.899 36.5442L366.924 34.5689H367.911C368.734 34.8981 370.479 35.5565 370.874 35.5565C371.27 35.5565 371.368 34.8981 371.368 34.5689L372.356 33.0873L374.331 32.5935L377.788 31.6058L376.801 28.1489H377.788L379.27 28.6428L381.245 30.6181H382.727L385.196 29.6305L388.653 27.6551L391.616 27.1612L393.591 28.1489L396.06 27.6551H401.986L402.48 26.6674L401.493 25.6797H400.011L398.53 24.1982H399.517L402.48 24.692L405.443 25.6797L408.9 26.1736L412.357 27.6551L414.332 28.6428L416.802 28.1489V26.6674L415.32 25.6797L412.851 24.692L412.357 22.2228L411.863 20.7413L414.826 19.2598L417.789 20.2475L419.271 21.729L421.246 24.1982L422.728 26.6674L424.209 28.6428L423.222 29.6305L422.234 30.6181V32.5935H424.209L426.185 31.6058L427.666 29.6305V27.6551L426.678 26.1736L424.703 24.692L422.234 23.2105V21.2352H423.715L427.666 20.7413L430.629 18.766L432.111 17.7783L434.086 17.2844H438.531L438.037 15.3091L439.025 14.3214L441 13.8275L443.963 12.8399H448.407H451.864L454.334 11.3583L456.309 9.38298H454.334L453.346 8.88914L451.371 9.87682H449.395L448.901 8.88914L446.432 7.90145L443.963 7.40761H440.012H435.074L435.568 5.43225L437.543 4.44457L440.506 5.43225L444.457 6.41993L448.407 7.40761L454.827 8.39529L457.297 9.38298H458.778L462.729 11.8522L472.606 11.3583L475.075 12.346L476.063 13.8275L471.124 18.2721L474.581 17.7783L480.013 16.7906L481.989 18.2721H488.409L493.841 19.2598L497.792 18.2721L504.705 18.766L514.088 23.7044L517.545 21.729L521.002 22.7167H525.447L525.94 20.7413L526.928 19.2598L538.286 20.2475L545.2 22.7167L561.003 23.7044L565.942 25.1859L577.794 25.6797L583.72 26.6674L582.732 24.692L595.078 25.6797L604.461 28.6428L608.906 29.1366L616.807 31.6058L618.289 31.112L621.252 31.6058L625.696 35.5565H621.746L618.783 34.5689L611.869 33.0873H610.881L611.869 35.0627L608.412 35.5565L618.783 40.4949L615.326 40.9888L611.869 41.9765L610.387 44.9395L607.918 45.4334L605.943 44.4457L601.498 45.9272L598.535 46.421L599.029 48.8902L604.955 53.3348L607.424 58.2732L605.943 59.7547L606.93 62.2239V65.6808L604.955 66.1747L597.547 59.2609L592.115 52.3471L593.597 49.3841L594.584 42.4703L591.621 40.9888L590.634 43.9518L582.238 42.4703L581.251 48.3964L573.843 46.9149L563.966 47.4087L561.497 48.8902L559.522 53.8287L558.04 57.7794L563.472 59.7547L569.892 60.7424L577.3 69.6316V80.0022L573.843 86.4221L569.892 85.4345L567.423 89.879L568.905 91.8544L565.448 95.3113L572.855 100.25L575.325 104.694L569.892 107.163L566.929 100.25L561.991 97.7805L561.497 95.3113L558.534 93.8298L554.089 95.3113L551.62 91.3606L546.188 96.299L551.62 100.25L553.596 99.262L558.534 100.25L552.608 104.694V106.67L555.571 109.139L557.546 111.608L561.991 115.559L560.016 117.534L562.979 118.522V120.003L561.003 127.411L559.028 132.349L552.114 136.3L545.694 137.782L542.237 141.238L539.274 138.275L535.817 139.263L533.348 143.708L538.286 151.115L541.743 157.041L543.225 163.461L538.286 166.918L536.311 169.387H534.336L533.842 165.931H531.373L521.99 159.017L521.002 167.906L524.953 173.832L530.385 178.77L532.36 188.153L527.422 184.696L523.471 175.313L519.027 169.881L519.521 161.98L517.545 156.548L515.076 150.128L511.125 152.597L509.15 151.115L508.656 147.165L506.681 143.708L502.73 141.238L499.767 136.3L494.829 137.782L490.878 139.263V141.732L487.421 144.202L483.964 147.165L477.05 154.078L477.544 161.98L475.569 167.906L472.606 171.363L470.136 170.375L467.173 161.98L462.729 152.597L459.766 143.708V140.251L458.284 137.288L454.827 140.251L450.877 137.782L453.346 135.312L447.914 133.337L445.938 130.374L441.988 129.386L433.098 129.88L426.185 128.892L421.74 125.436H416.802L411.863 123.46L408.9 119.016L404.949 117.04L403.468 120.497L405.937 124.942L408.406 129.88L411.369 128.892L412.851 131.362L415.814 132.843L421.74 127.905L422.728 130.868L425.197 132.843L430.135 137.782L428.16 139.263L420.259 149.634L415.32 151.115L413.345 153.585L411.369 154.572L403.468 158.523L396.06 160.498L395.073 157.535L393.097 150.128L389.64 145.683L385.69 140.251L384.208 135.806L381.739 131.855L377.294 125.929L374.825 120.991L373.838 120.497L373.344 122.966L369.887 119.016L368.899 119.509L373.999 129.386L380.257 140.251V143.708L385.196 150.128L386.184 153.091L391.122 157.535C394.791 161.435 395.473 163.069 396.554 165.931H401.493L411.863 162.474V167.906L408.406 174.82L403.962 182.721L400.505 186.672L395.567 190.129L391.122 195.561L386.184 202.969L385.196 206.425L385.69 210.376L388.653 218.771L388.159 221.241L389.147 225.685L388.653 228.648L379.764 235.562L374.331 242.97L376.801 247.414L376.307 248.896L374.825 251.859L370.874 254.328L369.887 256.303V260.254L362.973 268.156L358.528 273.094L353.304 275.563L351.121 276.551L346.676 275.563L341.244 276.551L338.281 274.082V270.625L336.306 267.168L331.861 258.773L330.873 250.871L328.404 244.945L325.441 237.537L324.453 233.093L324.947 227.661L328.898 219.265L327.416 213.833V210.376C326.264 207.907 323.861 202.771 323.466 201.981C322.972 200.993 322.478 200.499 322.478 200.006C322.478 199.61 320.832 198.524 320.009 198.03L318.034 195.067L319.515 188.647V185.684C319.515 185.19 319.021 183.709 319.021 183.215C319.021 182.721 317.54 181.733 317.54 181.24C317.54 180.845 315.894 180.417 315.07 180.252H311.12L310.626 179.264L309.638 177.783L308.157 176.795L304.7 175.313L294.329 178.77L291.86 179.264L290.378 178.77H287.909L282.477 180.252H279.02L276.551 178.77L273.094 176.795L268.649 171.363L267.168 168.894L265.193 165.931L262.723 163.955L260.748 162.474H262.229L261.736 160.992L260.748 161.486L259.76 160.004L260.748 159.017L261.242 157.535L260.254 156.548L259.76 154.078L262.229 147.658L261.736 143.214L260.748 140.745V138.275L268.649 124.942C269.637 124.119 271.612 122.374 271.612 121.979C271.612 121.584 273.259 120.826 274.082 120.497L277.045 117.534V114.571L279.02 111.608L283.958 107.657L286.922 103.707L287.909 104.694L290.872 105.682H292.848L295.811 104.694L299.268 103.213L301.737 102.719L304.206 101.731L310.132 101.237L312.107 101.731L315.07 101.237L317.54 100.744H320.009L320.997 101.731V103.213V105.682L321.49 107.657L322.478 109.633L324.947 110.62L327.416 111.114L329.392 111.608L331.367 113.09L332.355 115.065L335.318 116.053H337.293L339.269 117.534L341.244 115.559C341.409 115.065 341.738 113.978 341.738 113.583C341.738 113.188 342.067 112.431 342.232 112.102L343.713 111.114H346.182L347.664 112.102L351.121 113.583L355.565 114.377L358.035 115.065L360.504 115.559H361.985H362.973C363.368 115.559 364.455 115.23 364.948 115.065L366.924 115.357L368.899 115.559L370.381 115.065L371.862 114.571L372.85 113.583L373.999 112.596L374.331 110.62L374.825 109.139V107.657L375.319 105.682L374.825 104.694L375.813 103.707V102.719L375.319 101.731H373.999H372.356L371.368 102.225L369.393 102.719H368.405L366.924 102.225L365.442 101.731L363.961 101.237L362.479 101.731H360.504L359.516 101.237L357.541 100.25L356.553 99.262L356.059 97.7805L355.565 96.299L355.072 95.3113L354.084 94.3236V93.6808L356.059 93.3359L357.541 92.8421L359.022 92.3482L359.516 91.3606L361.491 90.8667L363.961 90.3729L365.936 89.879L367.418 88.8913H370.874L373.344 89.3852L375.319 89.879L377.294 91.3606L378.776 91.8544H380.751L382.727 91.3606L384.702 89.879L385.196 88.3975L384.208 86.916L383.22 85.4345L381.739 84.9406L379.764 83.9529L378.282 82.9653L376.307 81.9776L375.813 81.4837V80.4961C375.978 80.3314 376.307 79.9035 376.307 79.5084C376.307 79.1133 376.636 79.3438 376.801 79.5084V78.5207V77.533C376.801 77.3684 376.899 77.0392 377.294 77.0392C377.689 77.0392 377.788 76.0515 377.788 75.5576L377.294 75.0638H376.801C376.307 75.2284 375.22 75.6564 374.825 76.0515C374.331 76.5453 374.331 76.5453 373.838 76.5453C373.442 76.5453 373.014 76.8746 372.85 77.0392C372.521 77.2038 371.665 77.533 370.874 77.533L369.887 78.5207V79.0145L371.368 79.5084H372.356L372.85 80.4961H371.862L370.874 80.9899C370.545 81.1545 369.788 81.5825 369.393 81.9776C368.998 82.3727 368.899 82.1422 368.899 81.9776C368.57 81.813 367.911 81.385 367.911 80.9899C367.911 80.5948 367.253 80.8253 366.924 80.9899V80.0022V79.0145V78.5207H366.43L365.639 77.533L364.455 77.0392H363.467L362.479 77.533L360.998 79.0145L359.516 80.4961L359.022 81.4837L358.035 83.4591L357.047 85.4345L356.059 87.9037L357.047 88.8913L358.528 90.8667H358.035C357.705 90.8667 356.948 90.9655 356.553 91.3606C356.059 91.8544 354.578 91.3606 354.084 91.3606H352.602H350.133C349.738 91.3606 349.31 91.6898 349.145 91.8544L348.652 92.8421L347.664 92.3482L346.676 92.8421L346.182 93.8298L346.676 95.3113L347.664 97.2866L348.158 98.2743L347.664 99.7559L347.17 100.25L346.182 101.731L345.689 101.237L345.195 100.25L344.207 99.262V98.2743L344.701 97.7805L345.689 96.7928V96.299H344.207L343.219 95.8051L342.232 95.3113L340.256 93.3359L339.763 92.3482V89.879L338.775 87.9037L335.812 86.4221L332.849 84.9406L330.38 82.4714L325.935 79.5084L324.453 80.4961V81.9776L327.416 85.4345L331.367 88.8913L335.318 91.3606L336.799 92.8421L334.33 92.3482L333.343 93.3359L333.836 94.3236V96.299L332.355 97.7805V95.3113L331.367 93.3359L329.886 91.3606L327.416 90.3729L324.947 89.3852L320.997 85.4345C320.557 83.7633 319.933 83.0961 318.034 82.4714L312.601 85.4345L307.169 84.9406L305.687 85.9283V88.3975L301.243 90.8667L298.774 93.8298L298.28 96.7928L296.798 98.7682L293.835 101.237L288.897 101.731L286.922 103.213L283.958 100.744L280.995 99.7559L280.008 96.7928L280.995 91.8544L281.489 88.3975L280.995 85.9283L281.983 84.9406L283.465 84.4468L286.428 84.9406L289.885 85.4345L293.835 84.9406L296.305 83.9529L296.798 80.4961V78.0269L295.317 75.5576L292.848 74.57L291.86 73.0884C294.532 72.5197 295.928 72.1427 297.786 71.1131C299.979 71.0452 301.055 70.7102 302.724 69.6316L304.7 67.1624L310.626 62.7178L314.577 61.2363L318.034 59.2609V57.7794L317.046 55.804L317.54 53.8287Z" fill="black" fill-opacity="0.3"/>
<path d="M317.54 53.8287L320.009 51.8533L319.515 53.3348L319.021 54.8163L319.515 56.7917L320.009 58.2732L320.997 59.2609H322.972H323.96H326.429L328.898 59.7547H330.38L332.355 59.2609L333.836 58.2732H335.318L338.281 59.2609L339.763 58.2732L341.244 56.7917V54.3225L341.738 51.8533H343.219L345.195 52.3471L346.182 51.8533L346.676 50.8656L345.689 49.8779L344.207 47.9026L346.182 47.4087H349.639H353.096L354.578 45.9272L354.084 44.9395H351.615L348.158 45.4334H345.689L343.713 44.9395L342.232 44.4457L340.256 41.9765L341.244 40.0011L342.232 37.5319L344.207 35.5565V33.5812L343.219 33.0873H341.738L340.256 35.0627L338.281 36.5442C337.623 37.2027 336.207 38.5196 335.812 38.5196C335.417 38.5196 334.33 39.178 333.836 39.5073L332.355 41.4826L332.849 43.458L334.824 44.9395L335.812 46.421L334.33 47.9026L332.355 49.8779C331.861 50.5364 330.873 51.9521 330.873 52.3471C330.873 52.841 329.392 53.8287 329.392 54.3225C329.392 54.7176 328.075 55.4748 327.416 55.804H326.429L325.441 54.8163L324.453 52.841L322.972 50.8656L321.49 48.3964L320.503 47.9026L319.515 48.3964L316.552 49.3841H314.577L313.095 47.9026C312.766 47.5733 312.107 46.8161 312.107 46.421C312.107 46.026 311.778 43.9518 311.614 42.9642C311.943 42.4703 312.7 41.3839 313.095 40.9888C313.49 40.5937 315.564 39.8365 316.552 39.5073L320.009 37.5319L321.49 36.5442L324.947 33.5812L330.38 27.6551L332.355 26.1736L337.293 24.1982L341.738 23.7044L347.17 23.2105L352.602 23.7044L358.035 26.6674H360.01L363.467 27.1612L367.911 28.6428L371.862 30.1243L371.368 31.112L369.393 32.0997H366.924C366.43 32.0997 363.467 31.6058 362.973 31.6058C362.578 31.6058 360.833 30.9474 360.01 30.6181H358.035V31.6058L360.01 33.5812C360.668 34.2396 362.084 35.5565 362.479 35.5565C362.973 35.5565 363.961 36.5442 364.455 37.0381C364.948 37.5319 367.418 37.5319 367.911 37.5319C368.306 37.5319 368.734 36.8735 368.899 36.5442L366.924 34.5689H367.911C368.734 34.8981 370.479 35.5565 370.874 35.5565C371.27 35.5565 371.368 34.8981 371.368 34.5689L372.356 33.0873L374.331 32.5935L377.788 31.6058L376.801 28.1489H377.788L379.27 28.6428L381.245 30.6181H382.727L385.196 29.6305L388.653 27.6551L391.616 27.1612L393.591 28.1489L396.06 27.6551H401.986L402.48 26.6674L401.493 25.6797H400.011L398.53 24.1982H399.517L402.48 24.692L405.443 25.6797L408.9 26.1736L412.357 27.6551L414.332 28.6428L416.802 28.1489V26.6674L415.32 25.6797L412.851 24.692L412.357 22.2228L411.863 20.7413L414.826 19.2598L417.789 20.2475L419.271 21.729L421.246 24.1982L422.728 26.6674L424.209 28.6428L423.222 29.6305L422.234 30.6181V32.5935H424.209L426.185 31.6058L427.666 29.6305V27.6551L426.678 26.1736L424.703 24.692L422.234 23.2105V21.2352H423.715L427.666 20.7413L430.629 18.766L432.111 17.7783L434.086 17.2844H438.531L438.037 15.3091L439.025 14.3214L441 13.8275L443.963 12.8399H448.407H451.864L454.334 11.3583L456.309 9.38298H454.334L453.346 8.88914L451.371 9.87682H449.395L448.901 8.88914L446.432 7.90145L443.963 7.40761H440.012H435.074L435.568 5.43225L437.543 4.44457L440.506 5.43225L444.457 6.41993L448.407 7.40761L454.827 8.39529L457.297 9.38298H458.778L462.729 11.8522L472.606 11.3583L475.075 12.346L476.063 13.8275L471.124 18.2721L474.581 17.7783L480.013 16.7906L481.989 18.2721H488.409L493.841 19.2598L497.792 18.2721L504.705 18.766L514.088 23.7044L517.545 21.729L521.002 22.7167H525.447L525.94 20.7413L526.928 19.2598L538.286 20.2475L545.2 22.7167L561.003 23.7044L565.942 25.1859L577.794 25.6797L583.72 26.6674L582.732 24.692L595.078 25.6797L604.461 28.6428L608.906 29.1366L616.807 31.6058L618.289 31.112L621.252 31.6058L625.696 35.5565H621.746L618.783 34.5689L611.869 33.0873H610.881L611.869 35.0627L608.412 35.5565L618.783 40.4949L615.326 40.9888L611.869 41.9765L610.387 44.9395L607.918 45.4334L605.943 44.4457L601.498 45.9272L598.535 46.421L599.029 48.8902L604.955 53.3348L607.424 58.2732L605.943 59.7547L606.93 62.2239V65.6808L604.955 66.1747L597.547 59.2609L592.115 52.3471L593.597 49.3841L594.584 42.4703L591.621 40.9888L590.634 43.9518L582.238 42.4703L581.251 48.3964L573.843 46.9149L563.966 47.4087L561.497 48.8902L559.522 53.8287L558.04 57.7794L563.472 59.7547L569.892 60.7424L577.3 69.6316V80.0022L573.843 86.4221L569.892 85.4345L567.423 89.879L568.905 91.8544L565.448 95.3113L572.855 100.25L575.325 104.694L569.892 107.163L566.929 100.25L561.991 97.7805L561.497 95.3113L558.534 93.8298L554.089 95.3113L551.62 91.3606L546.188 96.299L551.62 100.25L553.596 99.262L558.534 100.25L552.608 104.694V106.67L555.571 109.139L557.546 111.608L561.991 115.559L560.016 117.534L562.979 118.522V120.003L561.003 127.411L559.028 132.349L552.114 136.3L545.694 137.782L542.237 141.238L539.274 138.275L535.817 139.263L533.348 143.708L538.286 151.115L541.743 157.041L543.225 163.461L538.286 166.918L536.311 169.387H534.336L533.842 165.931H531.373L521.99 159.017L521.002 167.906L524.953 173.832L530.385 178.77L532.36 188.153L527.422 184.696L523.471 175.313L519.027 169.881L519.521 161.98L517.545 156.548L515.076 150.128L511.125 152.597L509.15 151.115L508.656 147.165L506.681 143.708L502.73 141.238L499.767 136.3L494.829 137.782L490.878 139.263V141.732L487.421 144.202L483.964 147.165L477.05 154.078L477.544 161.98L475.569 167.906L472.606 171.363L470.136 170.375L467.173 161.98L462.729 152.597L459.766 143.708V140.251L458.284 137.288L454.827 140.251L450.877 137.782L453.346 135.312L447.914 133.337L445.938 130.374L441.988 129.386L433.098 129.88L426.185 128.892L421.74 125.436H416.802L411.863 123.46L408.9 119.016L404.949 117.04L403.468 120.497L405.937 124.942L408.406 129.88L411.369 128.892L412.851 131.362L415.814 132.843L421.74 127.905L422.728 130.868L425.197 132.843L430.135 137.782L428.16 139.263L420.259 149.634L415.32 151.115L413.345 153.585L411.369 154.572L403.468 158.523L396.06 160.498L395.073 157.535L393.097 150.128L389.64 145.683L385.69 140.251L384.208 135.806L381.739 131.855L377.294 125.929L374.825 120.991L373.838 120.497L373.344 122.966L369.887 119.016L368.899 119.509L373.999 129.386L380.257 140.251V143.708L385.196 150.128L386.184 153.091L391.122 157.535C394.791 161.435 395.473 163.069 396.554 165.931H401.493L411.863 162.474V167.906L408.406 174.82L403.962 182.721L400.505 186.672L395.567 190.129L391.122 195.561L386.184 202.969L385.196 206.425L385.69 210.376L388.653 218.771L388.159 221.241L389.147 225.685L388.653 228.648L379.764 235.562L374.331 242.97L376.801 247.414L376.307 248.896L374.825 251.859L370.874 254.328L369.887 256.303V260.254L362.973 268.156L358.528 273.094L353.304 275.563L351.121 276.551L346.676 275.563L341.244 276.551L338.281 274.082V270.625L336.306 267.168L331.861 258.773L330.873 250.871L328.404 244.945L325.441 237.537L324.453 233.093L324.947 227.661L328.898 219.265L327.416 213.833V210.376C326.264 207.907 323.861 202.771 323.466 201.981C322.972 200.993 322.478 200.499 322.478 200.006C322.478 199.61 320.832 198.524 320.009 198.03L318.034 195.067L319.515 188.647V185.684C319.515 185.19 319.021 183.709 319.021 183.215C319.021 182.721 317.54 181.733 317.54 181.24C317.54 180.845 315.894 180.417 315.07 180.252H311.12L310.626 179.264L309.638 177.783L308.157 176.795L304.7 175.313L294.329 178.77L291.86 179.264L290.378 178.77H287.909L282.477 180.252H279.02L276.551 178.77L273.094 176.795L268.649 171.363L267.168 168.894L265.193 165.931L262.723 163.955L260.748 162.474H262.229L261.736 160.992L260.748 161.486L259.76 160.004L260.748 159.017L261.242 157.535L260.254 156.548L259.76 154.078L262.229 147.658L261.736 143.214L260.748 140.745V138.275L268.649 124.942C269.637 124.119 271.612 122.374 271.612 121.979C271.612 121.584 273.259 120.826 274.082 120.497L277.045 117.534V114.571L279.02 111.608L283.958 107.657L286.922 103.707L287.909 104.694L290.872 105.682H292.848L295.811 104.694L299.268 103.213L301.737 102.719L304.206 101.731L310.132 101.237L312.107 101.731L315.07 101.237L317.54 100.744H320.009L320.997 101.731V103.213V105.682L321.49 107.657L322.478 109.633L324.947 110.62L327.416 111.114L329.392 111.608L331.367 113.09L332.355 115.065L335.318 116.053H337.293L339.269 117.534L341.244 115.559C341.409 115.065 341.738 113.978 341.738 113.583C341.738 113.188 342.067 112.431 342.232 112.102L343.713 111.114H346.182L347.664 112.102L351.121 113.583L355.565 114.377L358.035 115.065L360.504 115.559H361.985H362.973C363.368 115.559 364.455 115.23 364.948 115.065L366.924 115.357L368.899 115.559L370.381 115.065L371.862 114.571L372.85 113.583L373.999 112.596L374.331 110.62L374.825 109.139V107.657L375.319 105.682L374.825 104.694L375.813 103.707V102.719L375.319 101.731H373.999H372.356L371.368 102.225L369.393 102.719H368.405L366.924 102.225L365.442 101.731L363.961 101.237L362.479 101.731H360.504L359.516 101.237L357.541 100.25L356.553 99.262L356.059 97.7805L355.565 96.299L355.072 95.3113L354.084 94.3236V93.6808L356.059 93.3359L357.541 92.8421L359.022 92.3482L359.516 91.3606L361.491 90.8667L363.961 90.3729L365.936 89.879L367.418 88.8913H370.874L373.344 89.3852L375.319 89.879L377.294 91.3606L378.776 91.8544H380.751L382.727 91.3606L384.702 89.879L385.196 88.3975L384.208 86.916L383.22 85.4345L381.739 84.9406L379.764 83.9529L378.282 82.9653L376.307 81.9776L375.813 81.4837V80.4961C375.978 80.3314 376.307 79.9035 376.307 79.5084C376.307 79.1133 376.636 79.3438 376.801 79.5084V78.5207V77.533C376.801 77.3684 376.899 77.0392 377.294 77.0392C377.689 77.0392 377.788 76.0515 377.788 75.5576L377.294 75.0638H376.801C376.307 75.2284 375.22 75.6564 374.825 76.0515C374.331 76.5453 374.331 76.5453 373.838 76.5453C373.442 76.5453 373.014 76.8746 372.85 77.0392C372.521 77.2038 371.665 77.533 370.874 77.533L369.887 78.5207V79.0145L371.368 79.5084H372.356L372.85 80.4961H371.862L370.874 80.9899C370.545 81.1545 369.788 81.5825 369.393 81.9776C368.998 82.3727 368.899 82.1422 368.899 81.9776C368.57 81.813 367.911 81.385 367.911 80.9899C367.911 80.5948 367.253 80.8253 366.924 80.9899V80.0022V79.0145V78.5207H366.43L365.639 77.533L364.455 77.0392H363.467L362.479 77.533L360.998 79.0145L359.516 80.4961L359.022 81.4837L358.035 83.4591L357.047 85.4345L356.059 87.9037L357.047 88.8913L358.528 90.8667H358.035C357.705 90.8667 356.948 90.9655 356.553 91.3606C356.059 91.8544 354.578 91.3606 354.084 91.3606H352.602H350.133C349.738 91.3606 349.31 91.6898 349.145 91.8544L348.652 92.8421L347.664 92.3482L346.676 92.8421L346.182 93.8298L346.676 95.3113L347.664 97.2866L348.158 98.2743L347.664 99.7559L347.17 100.25L346.182 101.731L345.689 101.237L345.195 100.25L344.207 99.262V98.2743L344.701 97.7805L345.689 96.7928V96.299H344.207L343.219 95.8051L342.232 95.3113L340.256 93.3359L339.763 92.3482V89.879L338.775 87.9037L335.812 86.4221L332.849 84.9406L330.38 82.4714L325.935 79.5084L324.453 80.4961V81.9776L327.416 85.4345L331.367 88.8913L335.318 91.3606L336.799 92.8421L334.33 92.3482L333.343 93.3359L333.836 94.3236V96.299L332.355 97.7805V95.3113L331.367 93.3359L329.886 91.3606L327.416 90.3729L324.947 89.3852L320.997 85.4345C320.557 83.7633 319.933 83.0961 318.034 82.4714L312.601 85.4345L307.169 84.9406L305.687 85.9283V88.3975L301.243 90.8667L298.774 93.8298L298.28 96.7928L296.798 98.7682L293.835 101.237L288.897 101.731L286.922 103.213L283.958 100.744L280.995 99.7559L280.008 96.7928L280.995 91.8544L281.489 88.3975L280.995 85.9283L281.983 84.9406L283.465 84.4468L286.428 84.9406L289.885 85.4345L293.835 84.9406L296.305 83.9529L296.798 80.4961V78.0269L295.317 75.5576L292.848 74.57L291.86 73.0884C294.532 72.5197 295.928 72.1427 297.786 71.1131C299.979 71.0452 301.055 70.7102 302.724 69.6316L304.7 67.1624L310.626 62.7178L314.577 61.2363L318.034 59.2609V57.7794L317.046 55.804L317.54 53.8287Z" fill="black"/>
<path d="M403.962 228.648L407.913 222.722L409.394 225.191V228.648L408.9 231.611L407.913 234.574L406.925 237.044L406.431 239.513L404.949 241.982L403.962 245.439L403.468 248.896L402.48 251.859L400.505 253.34L398.53 254.328H396.554L394.579 253.34L393.591 247.414L394.579 243.957L396.554 241.982V239.019V234.574L398.036 231.611L403.962 228.648Z" fill="black" fill-opacity="0.3"/>
<path d="M403.962 228.648L407.913 222.722L409.394 225.191V228.648L408.9 231.611L407.913 234.574L406.925 237.044L406.431 239.513L404.949 241.982L403.962 245.439L403.468 248.896L402.48 251.859L400.505 253.34L398.53 254.328H396.554L394.579 253.34L393.591 247.414L394.579 243.957L396.554 241.982V239.019V234.574L398.036 231.611L403.962 228.648Z" fill="black"/>
<path d="M477.544 172.844L478.532 168.894L481.989 174.82L478.532 176.301L477.544 172.844Z" fill="black" fill-opacity="0.3"/>
<path d="M477.544 172.844L478.532 168.894L481.989 174.82L478.532 176.301L477.544 172.844Z" fill="black"/>
<path d="M519.027 180.746L513.101 178.77L524.953 193.586L528.41 200.499L533.348 204.944H536.311V199.512L531.373 194.573L530.385 190.623L524.953 186.672L519.027 180.746Z" fill="black" fill-opacity="0.3"/>
<path d="M519.027 180.746L513.101 178.77L524.953 193.586L528.41 200.499L533.348 204.944H536.311V199.512L531.373 194.573L530.385 190.623L524.953 186.672L519.027 180.746Z" fill="black"/>
<path d="M581.251 71.1131L574.337 61.7301L579.275 65.6808L582.238 68.15L585.201 71.6069H583.72L587.671 78.0269L585.201 77.533L581.251 71.1131Z" fill="black" fill-opacity="0.3"/>
<path d="M581.251 71.1131L574.337 61.7301L579.275 65.6808L582.238 68.15L585.201 71.6069H583.72L587.671 78.0269L585.201 77.533L581.251 71.1131Z" fill="black"/>
<path d="M592.115 83.4591L587.671 80.9899L588.658 84.4468L587.671 86.916L590.14 89.3852L590.634 86.916L593.597 87.9037L595.078 86.916L596.56 85.4345L592.115 83.4591Z" fill="black" fill-opacity="0.3"/>
<path d="M592.115 83.4591L587.671 80.9899L588.658 84.4468L587.671 86.916L590.14 89.3852L590.634 86.916L593.597 87.9037L595.078 86.916L596.56 85.4345L592.115 83.4591Z" fill="black"/>
<path d="M595.078 93.8298L590.634 91.8544L592.609 98.2743L590.14 101.237L587.671 104.2H582.732L579.275 107.163H585.201H587.671L589.646 109.633L590.634 107.163L591.128 106.176L593.597 104.694L597.547 103.707L596.56 101.237L596.066 96.7928L595.078 93.8298Z" fill="black" fill-opacity="0.3"/>
<path d="M595.078 93.8298L590.634 91.8544L592.609 98.2743L590.14 101.237L587.671 104.2H582.732L579.275 107.163H585.201H587.671L589.646 109.633L590.634 107.163L591.128 106.176L593.597 104.694L597.547 103.707L596.56 101.237L596.066 96.7928L595.078 93.8298Z" fill="black"/>
<path d="M584.708 108.645L583.72 109.633V111.608L585.695 110.127L586.189 108.645H584.708Z" fill="black" fill-opacity="0.3"/>
<path d="M584.708 108.645L583.72 109.633V111.608L585.695 110.127L586.189 108.645H584.708Z" fill="black"/>
<path d="M577.3 110.127L579.275 109.139L580.263 110.127L582.238 111.608V114.571L580.757 115.065L580.263 113.583L579.275 111.608L577.3 110.127Z" fill="black" fill-opacity="0.3"/>
<path d="M577.3 110.127L579.275 109.139L580.263 110.127L582.238 111.608V114.571L580.757 115.065L580.263 113.583L579.275 111.608L577.3 110.127Z" fill="black"/>
<path d="M562.979 133.337L565.448 130.374L566.435 134.819L564.954 136.3L562.979 133.337Z" fill="black" fill-opacity="0.3"/>
<path d="M562.979 133.337L565.448 130.374L566.435 134.819L564.954 136.3L562.979 133.337Z" fill="black"/>
<path d="M540.262 145.189L544.213 143.708L541.743 146.671L540.262 145.189Z" fill="black" fill-opacity="0.3"/>
<path d="M540.262 145.189L544.213 143.708L541.743 146.671L540.262 145.189Z" fill="black"/>
<path d="M571.374 150.621L567.917 146.671L566.435 153.091L568.905 157.041L572.362 159.017H576.312L575.325 157.041L572.362 156.548L569.892 154.078L571.374 150.621Z" fill="black" fill-opacity="0.3"/>
<path d="M571.374 150.621L567.917 146.671L566.435 153.091L568.905 157.041L572.362 159.017H576.312L575.325 157.041L572.362 156.548L569.892 154.078L571.374 150.621Z" fill="black"/>
<path d="M556.559 180.252L561.991 175.807L565.942 180.252L563.966 181.733L563.472 185.19L565.942 189.141L563.966 190.623C562.321 195.394 561.131 197.78 558.04 200.993L555.077 200.006H552.608L548.163 199.512L545.694 194.573L544.213 189.635L545.694 188.153H548.657L552.114 184.696L554.089 181.733L556.559 180.252Z" fill="black" fill-opacity="0.3"/>
<path d="M556.559 180.252L561.991 175.807L565.942 180.252L563.966 181.733L563.472 185.19L565.942 189.141L563.966 190.623C562.321 195.394 561.131 197.78 558.04 200.993L555.077 200.006H552.608L548.163 199.512L545.694 194.573L544.213 189.635L545.694 188.153H548.657L552.114 184.696L554.089 181.733L556.559 180.252Z" fill="black"/>
<path d="M562.979 168.894L566.929 165.437L564.46 169.881L561.991 170.869L562.979 168.894Z" fill="black" fill-opacity="0.3"/>
<path d="M562.979 168.894L566.929 165.437L564.46 169.881L561.991 170.869L562.979 168.894Z" fill="black"/>
<path d="M575.325 171.363L573.843 172.844L577.3 173.832L579.275 177.783H581.745L581.251 176.301V174.326L583.72 175.313L580.757 168.4L577.794 171.363H575.325Z" fill="black" fill-opacity="0.3"/>
<path d="M575.325 171.363L573.843 172.844L577.3 173.832L579.275 177.783H581.745L581.251 176.301V174.326L583.72 175.313L580.757 168.4L577.794 171.363H575.325Z" fill="black"/>
<path d="M577.794 191.61L580.263 188.647L577.794 189.141L575.818 189.635L573.843 189.141H571.374L569.892 189.635L568.411 191.61V194.079V196.055L566.929 197.536L566.435 200.499L567.423 202.475L566.929 203.956L568.411 205.438L569.892 204.944V202.969L569.398 200.006L570.88 199.512L574.831 203.462V200.499L573.843 196.549L575.325 194.079L570.88 195.067L569.892 192.104L573.349 190.623L577.794 191.61Z" fill="black" fill-opacity="0.3"/>
<path d="M577.794 191.61L580.263 188.647L577.794 189.141L575.818 189.635L573.843 189.141H571.374L569.892 189.635L568.411 191.61V194.079V196.055L566.929 197.536L566.435 200.499L567.423 202.475L566.929 203.956L568.411 205.438L569.892 204.944V202.969L569.398 200.006L570.88 199.512L574.831 203.462V200.499L573.843 196.549L575.325 194.079L570.88 195.067L569.892 192.104L573.349 190.623L577.794 191.61Z" fill="black"/>
<path d="M571.374 161.486L568.905 160.004L570.386 161.98L571.374 161.486Z" fill="black" fill-opacity="0.3"/>
<path d="M571.374 161.486L568.905 160.004L570.386 161.98L571.374 161.486Z" fill="black"/>
<path d="M571.868 164.943L572.855 163.461H574.337L573.349 164.943L572.362 165.931L571.868 164.943Z" fill="black" fill-opacity="0.3"/>
<path d="M571.868 164.943L572.855 163.461H574.337L573.349 164.943L572.362 165.931L571.868 164.943Z" fill="black"/>
<path d="M579.275 163.955L577.794 161.98H578.781L579.769 162.967L580.757 163.461L581.251 164.449L580.263 164.943L579.275 163.955Z" fill="black" fill-opacity="0.3"/>
<path d="M579.275 163.955L577.794 161.98H578.781L579.769 162.967L580.757 163.461L581.251 164.449L580.263 164.943L579.275 163.955Z" fill="black"/>
<path d="M575.818 167.906L574.831 166.918L573.349 168.136L574.466 169.881L575.818 167.906Z" fill="black" fill-opacity="0.3"/>
<path d="M575.818 167.906L574.831 166.918L573.349 168.136L574.466 169.881L575.818 167.906Z" fill="black"/>
<path d="M539.274 207.413L535.817 208.401L541.25 211.364L546.188 210.87L553.102 212.845H558.04L555.571 210.87L552.608 210.376L549.645 208.401L547.669 208.895H544.213L539.274 207.413Z" fill="black" fill-opacity="0.3"/>
<path d="M539.274 207.413L535.817 208.401L541.25 211.364L546.188 210.87L553.102 212.845H558.04L555.571 210.87L552.608 210.376L549.645 208.401L547.669 208.895H544.213L539.274 207.413Z" fill="black"/>
<path d="M598.041 193.586L595.078 195.067L597.054 196.055L598.041 197.042L599.029 197.536L598.535 198.03L597.547 199.512L599.029 201.487L604.461 202.969L606.93 203.956L608.906 205.438L610.387 207.413L611.375 208.895L610.881 209.882L608.906 211.364L609.602 211.858H610.881H612.857L615.326 213.339L617.301 214.327L619.276 214.821L620.264 213.833L622.239 211.858L624.215 210.87L627.178 212.352L631.129 216.796L638.042 218.771L633.104 213.833L630.141 209.882L630.635 207.413L626.684 203.956L619.77 200.006L609.893 196.055L603.474 200.499L602.486 200.006L601.004 198.03L600.318 195.067L598.041 193.586Z" fill="black" fill-opacity="0.3"/>
<path d="M598.041 193.586L595.078 195.067L597.054 196.055L598.041 197.042L599.029 197.536L598.535 198.03L597.547 199.512L599.029 201.487L604.461 202.969L606.93 203.956L608.906 205.438L610.387 207.413L611.375 208.895L610.881 209.882L608.906 211.364L609.602 211.858H610.881H612.857L615.326 213.339L617.301 214.327L619.276 214.821L620.264 213.833L622.239 211.858L624.215 210.87L627.178 212.352L631.129 216.796L638.042 218.771L633.104 213.833L630.141 209.882L630.635 207.413L626.684 203.956L619.77 200.006L609.893 196.055L603.474 200.499L602.486 200.006L601.004 198.03L600.318 195.067L598.041 193.586Z" fill="black"/>
<path d="M602.486 226.179L603.474 223.216L601.498 222.228L599.523 221.241H597.547L593.103 223.216L589.152 225.685L588.164 228.154L587.177 229.636L584.708 227.167L581.745 226.673L577.3 230.13L574.831 232.599L573.843 234.574L571.868 233.587L571.374 235.068L568.905 237.537L567.423 240.5L566.435 241.488L562.979 241.982L557.052 243.957L550.139 247.908L548.657 250.377V252.847V257.291V260.748V264.205V268.156L549.151 270.625L547.669 273.588L545.694 275.563L546.682 276.551L549.151 277.539L551.126 277.045L554.089 276.551L559.028 274.576H562.979L565.448 274.082L568.905 272.6L571.868 271.612L574.831 270.625L580.757 270.131L585.695 271.612L589.152 277.045L590.14 276.057L593.103 274.082H595.078L594.584 276.057L593.103 278.032L595.078 277.045V279.02L596.066 280.995V282.477L595.078 283.958L596.066 284.946L597.547 286.922H600.51L603.474 285.934L606.437 287.909L607.918 286.922L608.906 285.44H611.375L614.338 284.946L615.82 283.958L616.807 281.983L620.264 278.526L623.721 275.069L626.684 272.6L633.104 264.205L634.092 256.303V253.34L633.104 252.353L632.116 250.871L630.635 248.896L629.153 246.427L628.659 244.451L626.19 240.994L623.721 238.031V237.044L624.215 234.574V232.105L623.721 230.13V229.142L622.239 227.167L620.264 225.685L619.77 223.216L617.795 220.253L616.807 221.735L615.82 224.204V226.673V228.154L614.832 231.118L612.857 233.587L610.387 235.562L608.906 234.574L605.943 233.093L604.461 231.611L602.486 230.13L601.004 228.154L602.486 226.179Z" fill="black" fill-opacity="0.3"/>
<path d="M602.486 226.179L603.474 223.216L601.498 222.228L599.523 221.241H597.547L593.103 223.216L589.152 225.685L588.164 228.154L587.177 229.636L584.708 227.167L581.745 226.673L577.3 230.13L574.831 232.599L573.843 234.574L571.868 233.587L571.374 235.068L568.905 237.537L567.423 240.5L566.435 241.488L562.979 241.982L557.052 243.957L550.139 247.908L548.657 250.377V252.847V257.291V260.748V264.205V268.156L549.151 270.625L547.669 273.588L545.694 275.563L546.682 276.551L549.151 277.539L551.126 277.045L554.089 276.551L559.028 274.576H562.979L565.448 274.082L568.905 272.6L571.868 271.612L574.831 270.625L580.757 270.131L585.695 271.612L589.152 277.045L590.14 276.057L593.103 274.082H595.078L594.584 276.057L593.103 278.032L595.078 277.045V279.02L596.066 280.995V282.477L595.078 283.958L596.066 284.946L597.547 286.922H600.51L603.474 285.934L606.437 287.909L607.918 286.922L608.906 285.44H611.375L614.338 284.946L615.82 283.958L616.807 281.983L620.264 278.526L623.721 275.069L626.684 272.6L633.104 264.205L634.092 256.303V253.34L633.104 252.353L632.116 250.871L630.635 248.896L629.153 246.427L628.659 244.451L626.19 240.994L623.721 238.031V237.044L624.215 234.574V232.105L623.721 230.13V229.142L622.239 227.167L620.264 225.685L619.77 223.216L617.795 220.253L616.807 221.735L615.82 224.204V226.673V228.154L614.832 231.118L612.857 233.587L610.387 235.562L608.906 234.574L605.943 233.093L604.461 231.611L602.486 230.13L601.004 228.154L602.486 226.179Z" fill="black"/>
<path d="M170.869 322.972L167.412 320.997L165.437 322.972L167.412 325.441L171.857 326.429L176.795 325.441L170.869 322.972Z" fill="black" fill-opacity="0.3"/>
<path d="M170.869 322.972L167.412 320.997L165.437 322.972L167.412 325.441L171.857 326.429L176.795 325.441L170.869 322.972Z" fill="black"/>
<path d="M182.227 316.552L180.746 318.527L182.227 319.021L183.709 318.034L182.721 319.515L184.203 320.503L186.178 317.54L182.227 316.552Z" fill="black" fill-opacity="0.3"/>
<path d="M182.227 316.552L180.746 318.527L182.227 319.021L183.709 318.034L182.721 319.515L184.203 320.503L186.178 317.54L182.227 316.552Z" fill="black"/>
<path d="M606.93 293.835L600.017 292.848V295.811L599.029 296.798V298.28L600.017 299.268L602.486 297.786L606.93 293.835Z" fill="black" fill-opacity="0.3"/>
<path d="M606.93 293.835L600.017 292.848V295.811L599.029 296.798V298.28L600.017 299.268L602.486 297.786L606.93 293.835Z" fill="black"/>
<path d="M658.29 292.354L659.278 293.835L658.784 295.811L654.833 297.786L652.364 300.255L649.895 300.749L643.968 305.194L639.03 306.675L637.055 305.194L646.438 299.268L653.845 295.317L658.29 292.354Z" fill="black" fill-opacity="0.3"/>
<path d="M658.29 292.354L659.278 293.835L658.784 295.811L654.833 297.786L652.364 300.255L649.895 300.749L643.968 305.194L639.03 306.675L637.055 305.194L646.438 299.268L653.845 295.317L658.29 292.354Z" fill="black"/>
<path d="M668.167 285.934L663.722 289.391L664.71 290.872L663.722 292.354L662.734 292.848L662.241 293.835L662.734 294.329L664.216 293.835L666.191 292.354L668.661 291.366L670.636 289.391L672.611 287.909L673.599 286.922L674.093 285.44H673.599H672.611H671.624L670.636 284.452L670.142 282.971L669.154 281.489L670.142 280.008L669.648 279.02L668.167 278.032V280.008L668.661 282.971L668.167 285.934Z" fill="black" fill-opacity="0.3"/>
<path d="M668.167 285.934L663.722 289.391L664.71 290.872L663.722 292.354L662.734 292.848L662.241 293.835L662.734 294.329L664.216 293.835L666.191 292.354L668.661 291.366L670.636 289.391L672.611 287.909L673.599 286.922L674.093 285.44H673.599H672.611H671.624L670.636 284.452L670.142 282.971L669.154 281.489L670.142 280.008L669.648 279.02L668.167 278.032V280.008L668.661 282.971L668.167 285.934Z" fill="black"/>
<path d="M664.71 242.97L661.747 239.513L661.253 240.994L664.216 244.451L667.179 247.414L668.167 246.92L664.71 242.97Z" fill="black" fill-opacity="0.3"/>
<path d="M664.71 242.97L661.747 239.513L661.253 240.994L664.216 244.451L667.179 247.414L668.167 246.92L664.71 242.97Z" fill="black"/>
<path d="M637.055 206.425H634.092L636.067 208.401H638.042L641.993 203.462H641.005L637.055 206.425Z" fill="black" fill-opacity="0.3"/>
<path d="M637.055 206.425H634.092L636.067 208.401H638.042L641.993 203.462H641.005L637.055 206.425Z" fill="black"/>
<path d="M587.671 187.66L588.658 186.178L586.189 187.66L586.683 190.129L585.695 191.116L587.671 192.598L588.658 191.116L587.671 189.635V187.66Z" fill="black" fill-opacity="0.3"/>
<path d="M587.671 187.66L588.658 186.178L586.189 187.66L586.683 190.129L585.695 191.116L587.671 192.598L588.658 191.116L587.671 189.635V187.66Z" fill="black"/>
<path d="M578.288 213.833L576.312 216.796L580.263 215.315L584.708 213.339L578.288 213.833Z" fill="black" fill-opacity="0.3"/>
<path d="M578.288 213.833L576.312 216.796L580.263 215.315L584.708 213.339L578.288 213.833Z" fill="black"/>
<path d="M568.905 212.352L573.843 213.339L569.892 214.327L568.905 212.352Z" fill="black" fill-opacity="0.3"/>
<path d="M568.905 212.352L573.843 213.339L569.892 214.327L568.905 212.352Z" fill="black"/>
<path d="M567.423 215.315L569.398 216.302L568.411 217.29L566.435 215.808L567.423 215.315Z" fill="black" fill-opacity="0.3"/>
<path d="M567.423 215.315L569.398 216.302L568.411 217.29L566.435 215.808L567.423 215.315Z" fill="black"/>
<path d="M563.966 212.845L565.448 213.339L561.003 214.821V213.339L563.966 212.845Z" fill="black" fill-opacity="0.3"/>
<path d="M563.966 212.845L565.448 213.339L561.003 214.821V213.339L563.966 212.845Z" fill="black"/>
<path d="M589.152 198.524L587.177 199.512L589.152 200.499L591.621 200.006L589.152 198.524Z" fill="black" fill-opacity="0.3"/>
<path d="M589.152 198.524L587.177 199.512L589.152 200.499L591.621 200.006L589.152 198.524Z" fill="black"/>
<path d="M693.846 237.309V235.068L696.316 236.056L693.846 237.309Z" fill="black" fill-opacity="0.3"/>
<path d="M693.846 237.309V235.068L696.316 236.056L693.846 237.309Z" fill="black"/>
<path d="M697.797 232.599L696.809 233.587L698.291 234.081L700 233.587L697.797 232.599Z" fill="black" fill-opacity="0.3"/>
<path d="M697.797 232.599L696.809 233.587L698.291 234.081L700 233.587L697.797 232.599Z" fill="black"/>
</svg>
