<svg width="120" height="44" viewBox="0 0 120 44" fill="none" xmlns="http://www.w3.org/2000/svg">
<path d="M64 12C71.6778 12.4111 75.4408 11.8186 80.7335 10.3163C80.8991 10.2693 81.0791 10.2643 81.245 10.3103C85.2347 11.4162 83.5598 14.8177 78.1315 20.3659C78.0458 20.4535 77.943 20.5262 77.8311 20.5762C75.0029 21.8383 71.8221 22.6214 68.3977 23.0524C68.3118 23.0632 68.2234 23.0624 68.1376 23.0506C63.7322 22.4484 61.2428 22.3741 56.8742 22.6458L56.7432 22.6606C55.1326 22.8424 54.1646 22.9517 52.2524 23.6852C52.0903 23.7474 51.9407 23.8485 51.8505 23.9968C51.6841 24.2702 51.6749 24.512 51.9026 24.8784C52.0333 25.0888 52.2692 25.213 52.5139 25.2515C71.4641 28.2287 79.6205 26.3486 87 25.1904C95.7128 23.3634 108.165 0.413253 115.975 0.439761C118.529 0.44844 119.89 1.13106 119.391 2.54584C119.372 2.60021 119.344 2.65397 119.314 2.70313C103.383 28.7226 94.6028 37.7085 79.3492 40.1992C69.6182 42.6692 63.6939 43.4772 51.5556 42.9857L10.8653 43.3586C10.8048 43.3592 10.672 43.3827 10.613 43.3961C3.49497 45.0176 -2.77205 37.7142 1.63132 31.8913C2.13386 31.2267 2.65638 30.5402 3.20204 29.8258C14.6922 16.1455 21.4514 11.6956 34.1261 10.0849C44.3093 8.8391 50.5765 10.2071 64 12Z" fill="white"/>
</svg>
