<svg width="182" height="133" viewBox="0 0 182 133" fill="none" xmlns="http://www.w3.org/2000/svg">
<path d="M46.369 49.2521C39.5143 45.7692 36.5517 43.3746 32.7192 39.4272C32.5993 39.3037 32.4459 39.2094 32.2793 39.1662C28.2711 38.1291 28.0209 41.9124 29.9478 49.4314C29.9782 49.5501 30.0309 49.6645 30.1029 49.7637C31.9211 52.2708 34.2842 54.5394 37.0343 56.6249C37.1033 56.6772 37.1803 56.7207 37.2604 56.7534C41.3768 58.4345 43.5697 59.6149 47.2173 62.0345L47.3233 62.1128C48.6272 63.0756 49.4108 63.6542 50.7001 65.2456C50.8094 65.3805 50.8884 65.5428 50.8924 65.7164C50.8998 66.0363 50.7868 66.2503 50.4064 66.4538C50.188 66.5706 49.9217 66.5603 49.6906 66.4712C31.7906 59.5745 25.667 53.8681 19.8552 49.1753C13.2232 43.2367 13.9147 17.1353 7.13758 13.2532C4.92099 11.9834 3.40139 11.8943 3.12597 13.369C3.11539 13.4256 3.11231 13.4859 3.11379 13.5435C3.90067 44.0426 7.01193 56.2149 18.9766 65.9987C26.1689 73.0033 30.8955 76.6652 41.6533 82.3087L76.7057 102.977C76.7578 103.008 76.8611 103.094 76.9054 103.135C82.2591 108.099 91.3382 104.907 90.4362 97.6628C90.3333 96.836 90.2241 95.9801 90.1087 95.0887C86.9981 77.4961 83.3693 70.2628 73.1981 62.5305C65.0021 56.36 58.8906 54.4111 46.369 49.2521Z" fill="white"/>
<path d="M135.099 49.6449C141.953 46.162 144.916 43.7674 148.748 39.82C148.868 39.6965 149.022 39.6022 149.188 39.5591C153.196 38.5219 153.447 42.3053 151.52 49.8242C151.489 49.943 151.437 50.0573 151.365 50.1565C149.547 52.6637 147.183 54.9323 144.433 57.0177C144.364 57.0701 144.287 57.1135 144.207 57.1463C140.091 58.8274 137.898 60.0077 134.25 62.4273L134.144 62.5057C132.84 63.4684 132.057 64.0471 130.767 65.6384C130.658 65.7733 130.579 65.9357 130.575 66.1092C130.568 66.4292 130.681 66.6431 131.061 66.8466C131.28 66.9635 131.546 66.9531 131.777 66.8641C149.677 59.9674 155.801 54.2609 161.612 49.5682C168.244 43.6296 167.553 17.5282 174.33 13.646C176.547 12.3763 178.066 12.2872 178.342 13.7618C178.352 13.8185 178.355 13.8788 178.354 13.9364C177.567 44.4354 174.456 56.6077 162.491 66.3915C155.299 73.3962 150.572 77.0581 139.814 82.7015L104.762 103.37C104.71 103.4 104.607 103.487 104.562 103.528C99.2085 108.491 90.1294 105.3 91.0313 98.0556C91.1343 97.2288 91.2435 96.373 91.3589 95.4815C94.4695 77.8889 98.0982 70.6556 108.269 62.9234C116.465 56.7528 122.577 54.8039 135.099 49.6449Z" fill="white"/>
</svg>
