<svg width="148" height="143" viewBox="0 0 148 143" fill="none" xmlns="http://www.w3.org/2000/svg">
<path d="M59.8263 105.5C54.3584 102.589 52.6834 100.566 51.3263 96.5C56.719 97.1793 59.7045 98.5465 64.7051 105.335C64.784 105.442 64.8871 105.537 65.0011 105.605C80.1877 114.75 87.7673 121.668 97.3641 139.153C97.6217 139.622 97.4644 140.217 97.0054 140.493L93.7466 142.448C93.2492 142.746 92.6002 142.554 92.3363 142.038C84.02 125.763 78.3892 117.664 65.4769 109.888C65.0951 109.658 64.6045 109.713 64.2717 110.01C61.5772 112.411 59.2553 113.342 54.756 113.894C54.1395 113.97 53.5131 113.967 52.9009 113.863C50.449 113.442 48.7854 112.657 47.8263 111C49.5725 111.424 51.3073 111.628 52.7603 111.333C53.4778 111.188 54.0396 110.676 54.4868 110.096C55.9043 108.258 57.2842 107.155 59.8263 105.5Z" fill="#C39628"/>
<path d="M26.2901 12.5381C31.8065 10.6449 34.3749 7.84573 36.9758 2.00768C37.3238 1.22648 36.5695 0.429429 35.7685 0.729079C28.9789 3.26904 26.166 5.87352 25.0718 11.4846C24.9335 12.1934 25.607 12.7725 26.2901 12.5381Z" fill="#C39628"/>
<path d="M22.2451 19.7322C28.0401 20.3903 31.5615 18.9647 36.4166 14.8084C37.0663 14.2522 36.7272 13.2086 35.8751 13.1354C28.6525 12.5148 24.994 13.6597 21.5971 18.2577C21.1679 18.8386 21.5276 19.6507 22.2451 19.7322Z" fill="#C39628"/>
<path d="M19.9097 17.8032C23.4972 13.2049 24.1203 9.45736 23.1112 3.14633C22.9762 2.30184 21.909 2.04601 21.4016 2.73444C17.1007 8.56988 16.1665 12.2878 18.3138 17.5859C18.5851 18.2552 19.4655 18.3726 19.9097 17.8032Z" fill="#C39628"/>
<path d="M16.5706 27.7368C19.5201 22.4147 16.3413 19.4929 16.3936 14.4058C16.4039 13.4039 15.1065 12.6713 14.4399 13.4194C11.0642 17.2076 10.666 20.735 14.9817 27.7406C15.3541 28.3451 16.2264 28.3578 16.5706 27.7368Z" fill="#C39628"/>
<path d="M13.1122 39.8775C16.1748 33.2938 11.7419 30.4918 11.3681 24.4878C11.3062 23.4935 9.97285 22.8815 9.35616 23.6639C5.53535 28.5114 5.33732 32.5052 11.5412 40.0539C11.9797 40.5874 12.8209 40.5037 13.1122 39.8775Z" fill="#C39628"/>
<path d="M11.9448 51.3974C13.6167 44.3313 8.70975 42.481 7.1327 36.6758C6.87152 35.7144 5.44218 35.3839 4.99596 36.2746C2.23135 41.7931 2.84287 45.7447 10.4417 51.887C10.9789 52.3212 11.7858 52.0695 11.9448 51.3974Z" fill="#C39628"/>
<path d="M12.8794 64.7139C13.6467 57.4934 8.54557 56.2767 6.24894 50.7168C5.8686 49.796 4.40899 49.6484 4.07867 50.5882C2.03214 56.4114 3.13716 60.2543 11.45 65.3892C12.0376 65.7521 12.8064 65.4007 12.8794 64.7139Z" fill="#C39628"/>
<path d="M18.8413 77.626C17.8531 70.4324 12.609 70.4757 9.045 65.6296C8.45477 64.827 7.00239 65.0341 6.90733 66.0257C6.31836 72.1699 8.31351 75.6352 17.6159 78.6246C18.2734 78.8359 18.9353 78.3102 18.8413 77.626Z" fill="#C39628"/>
<path d="M26.5653 88.3247C23.7727 81.622 18.7136 83.0031 14.0302 79.2279C13.2545 78.6026 11.9032 79.1737 12.0645 80.1568C13.0642 86.2476 15.8781 89.0886 25.6355 89.6032C26.3252 89.6396 26.8309 88.9623 26.5653 88.3247Z" fill="#C39628"/>
<path d="M35.2836 95.447C30.5157 89.9706 26.1524 92.8799 20.5158 90.7785C19.5824 90.4305 18.4808 91.3994 18.9446 92.2811C21.8181 97.7437 25.3858 99.5496 34.8056 96.9538C35.4714 96.7704 35.7371 95.9679 35.2836 95.447Z" fill="#C39628"/>
<path d="M42.4092 101.488C36.8536 96.8127 32.9913 100.36 27.098 99.1534C26.122 98.9535 25.1831 100.081 25.7774 100.88C29.4591 105.834 33.2626 107.068 42.1693 103.051C42.7988 102.767 42.9376 101.933 42.4092 101.488Z" fill="#C39628"/>
<path d="M52.3206 104.663C45.8945 101.282 42.8791 105.573 36.8641 105.653C35.868 105.666 35.1915 106.968 35.9428 107.622C40.5978 111.675 44.5771 112.068 52.42 106.241C52.9744 105.829 52.9318 104.985 52.3206 104.663Z" fill="#C39628"/>
<path d="M42.8908 88.9398C50.098 90.8973 48.4766 96.2602 52.4214 100.572C53.0842 101.296 52.6692 102.683 51.6877 102.654C45.0688 102.462 42.0574 100.015 41.7142 89.8917C41.6928 89.258 42.2789 88.7736 42.8908 88.9398Z" fill="#C39628"/>
<path d="M33.5334 80.7495C40.2477 84.0197 37.6523 88.985 40.7217 93.9579C41.2374 94.7934 40.5705 96.0781 39.6116 95.8666C33.1453 94.4404 30.6445 91.4733 32.1996 81.4647C32.297 80.8382 32.9634 80.4719 33.5334 80.7495Z" fill="#C39628"/>
<path d="M27.8882 72.375C33.5006 77.3022 29.6862 81.4059 31.3334 87.0127C31.6101 87.9548 30.6277 89.0178 29.7587 88.5606C23.8985 85.4775 22.27 81.9552 26.4129 72.7126C26.6723 72.134 27.4117 71.9567 27.8882 72.375Z" fill="#C39628"/>
<path d="M23.914 61.2242C28.0047 67.4725 23.232 70.407 23.3201 76.2501C23.335 77.2319 22.1041 77.9935 21.389 77.3206C16.5664 72.783 15.9389 68.9535 22.4022 61.155C22.8068 60.6669 23.5667 60.6937 23.914 61.2242Z" fill="#C39628"/>
<path d="M23.7289 51.9934C25.6403 59.213 20.1857 60.4926 18.4266 66.0653C18.1311 67.0017 16.7228 67.3362 16.2564 66.4722C13.111 60.6452 13.7232 56.8133 22.316 51.451C22.8539 51.1154 23.5666 51.3805 23.7289 51.9934Z" fill="#C39628"/>
<path d="M24.3134 42.8138C24.7099 50.2716 19.1089 50.41 16.2486 55.506C15.7681 56.3622 14.3212 56.4021 14.0411 55.461C12.1522 49.1144 13.5341 45.4883 23.0411 41.9942C23.6362 41.7755 24.2797 42.1806 24.3134 42.8138Z" fill="#C39628"/>
<path d="M26.7554 31.434C26.3364 38.8906 20.7537 38.4175 17.3549 43.1713C16.7838 43.97 15.3412 43.8518 15.1654 42.8858C13.9797 36.3711 15.7488 32.9173 25.58 30.4806C26.1954 30.3281 26.7909 30.801 26.7554 31.434Z" fill="#C39628"/>
<path d="M32.0314 23.5347C29.0292 30.3731 23.9651 27.976 19.1175 31.2396C18.303 31.7879 16.993 31.1724 17.1664 30.2059C18.3358 23.6883 21.2018 21.072 31.264 22.2303C31.8939 22.3028 32.2862 22.9542 32.0314 23.5347Z" fill="#C39628"/>
<path d="M88 105.5C93.4679 102.589 95.1429 100.566 96.5 96.5C91.1073 97.1793 88.1217 98.5465 83.1211 105.335C83.0422 105.442 82.9392 105.537 82.8252 105.605C67.6386 114.75 60.059 121.668 50.4621 139.153C50.2046 139.622 50.3618 140.217 50.8209 140.493L54.0796 142.448C54.5771 142.746 55.226 142.554 55.49 142.038C63.8063 125.763 69.437 117.664 82.3494 109.888C82.7312 109.658 83.2218 109.713 83.5546 110.01C86.2491 112.411 88.5709 113.342 93.0702 113.894C93.6868 113.97 94.3131 113.967 94.9254 113.863C97.3773 113.442 99.0409 112.657 100 111C98.2538 111.424 96.519 111.628 95.066 111.333C94.3485 111.188 93.7866 110.676 93.3395 110.096C91.9219 108.258 90.5421 107.155 88 105.5Z" fill="#C39628"/>
<path d="M121.536 12.5381C116.02 10.6449 113.451 7.84573 110.85 2.00768C110.502 1.22648 111.257 0.429429 112.058 0.729079C118.847 3.26904 121.66 5.87352 122.754 11.4846C122.893 12.1934 122.219 12.7725 121.536 12.5381Z" fill="#C39628"/>
<path d="M125.581 19.7322C119.786 20.3903 116.265 18.9647 111.41 14.8084C110.76 14.2522 111.099 13.2086 111.951 13.1354C119.174 12.5148 122.832 13.6597 126.229 18.2577C126.658 18.8386 126.299 19.6507 125.581 19.7322Z" fill="#C39628"/>
<path d="M127.917 17.8032C124.329 13.2049 123.706 9.45736 124.715 3.14633C124.85 2.30184 125.917 2.04601 126.425 2.73444C130.726 8.56988 131.66 12.2878 129.512 17.5859C129.241 18.2552 128.361 18.3726 127.917 17.8032Z" fill="#C39628"/>
<path d="M131.256 27.7368C128.306 22.4147 131.485 19.4929 131.433 14.4058C131.422 13.4039 132.72 12.6713 133.386 13.4194C136.762 17.2076 137.16 20.735 132.845 27.7406C132.472 28.3451 131.6 28.3578 131.256 27.7368Z" fill="#C39628"/>
<path d="M134.714 39.8775C131.651 33.2938 136.084 30.4918 136.458 24.4878C136.52 23.4935 137.853 22.8815 138.47 23.6639C142.291 28.5114 142.489 32.5052 136.285 40.0539C135.847 40.5874 135.005 40.5037 134.714 39.8775Z" fill="#C39628"/>
<path d="M135.881 51.3974C134.21 44.3313 139.117 42.481 140.694 36.6758C140.955 35.7144 142.384 35.3839 142.83 36.2746C145.595 41.7931 144.983 45.7447 137.385 51.887C136.847 52.3212 136.04 52.0695 135.881 51.3974Z" fill="#C39628"/>
<path d="M134.947 64.7139C134.18 57.4934 139.281 56.2767 141.577 50.7168C141.958 49.796 143.417 49.6484 143.748 50.5882C145.794 56.4114 144.689 60.2543 136.376 65.3892C135.789 65.7521 135.02 65.4007 134.947 64.7139Z" fill="#C39628"/>
<path d="M128.985 77.626C129.973 70.4324 135.217 70.4757 138.781 65.6296C139.371 64.827 140.824 65.0341 140.919 66.0257C141.508 72.1699 139.513 75.6352 130.21 78.6246C129.553 78.8359 128.891 78.3102 128.985 77.626Z" fill="#C39628"/>
<path d="M121.261 88.3247C124.054 81.622 129.113 83.0031 133.796 79.2279C134.572 78.6026 135.923 79.1737 135.762 80.1568C134.762 86.2476 131.948 89.0886 122.191 89.6032C121.501 89.6396 120.995 88.9623 121.261 88.3247Z" fill="#C39628"/>
<path d="M112.543 95.447C117.311 89.9706 121.674 92.8799 127.31 90.7785C128.244 90.4305 129.345 91.3994 128.882 92.2811C126.008 97.7437 122.44 99.5496 113.021 96.9538C112.355 96.7704 112.089 95.9679 112.543 95.447Z" fill="#C39628"/>
<path d="M105.417 101.488C110.973 96.8127 114.835 100.36 120.728 99.1534C121.704 98.9535 122.643 100.081 122.049 100.88C118.367 105.834 114.564 107.068 105.657 103.051C105.027 102.767 104.889 101.933 105.417 101.488Z" fill="#C39628"/>
<path d="M95.5057 104.663C101.932 101.282 104.947 105.573 110.962 105.653C111.958 105.666 112.635 106.968 111.883 107.622C107.228 111.675 103.249 112.068 95.4063 106.241C94.8519 105.829 94.8944 104.985 95.5057 104.663Z" fill="#C39628"/>
<path d="M104.935 88.9398C97.7282 90.8973 99.3497 96.2602 95.4049 100.572C94.7421 101.296 95.1571 102.683 96.1386 102.654C102.757 102.462 105.769 100.015 106.112 89.8917C106.134 89.258 105.547 88.7736 104.935 88.9398Z" fill="#C39628"/>
<path d="M114.293 80.7495C107.579 84.0197 110.174 88.985 107.105 93.9579C106.589 94.7934 107.256 96.0781 108.215 95.8666C114.681 94.4404 117.182 91.4733 115.627 81.4647C115.529 80.8382 114.863 80.4719 114.293 80.7495Z" fill="#C39628"/>
<path d="M119.938 72.375C114.326 77.3022 118.14 81.4059 116.493 87.0127C116.216 87.9548 117.199 89.0178 118.068 88.5606C123.928 85.4775 125.556 81.9552 121.413 72.7126C121.154 72.134 120.415 71.9567 119.938 72.375Z" fill="#C39628"/>
<path d="M123.912 61.2242C119.822 67.4725 124.594 70.407 124.506 76.2501C124.491 77.2319 125.722 77.9935 126.437 77.3206C131.26 72.783 131.887 68.9535 125.424 61.155C125.019 60.6669 124.26 60.6937 123.912 61.2242Z" fill="#C39628"/>
<path d="M124.097 51.9934C122.186 59.213 127.641 60.4926 129.4 66.0653C129.695 67.0017 131.103 67.3362 131.57 66.4722C134.715 60.6452 134.103 56.8133 125.51 51.451C124.972 51.1154 124.26 51.3805 124.097 51.9934Z" fill="#C39628"/>
<path d="M123.513 42.8138C123.116 50.2716 128.717 50.41 131.578 55.506C132.058 56.3622 133.505 56.4021 133.785 55.461C135.674 49.1144 134.292 45.4883 124.785 41.9942C124.19 41.7755 123.547 42.1806 123.513 42.8138Z" fill="#C39628"/>
<path d="M121.071 31.434C121.49 38.8906 127.073 38.4175 130.471 43.1713C131.042 43.97 132.485 43.8518 132.661 42.8858C133.847 36.3711 132.077 32.9173 122.246 30.4806C121.631 30.3281 121.035 30.801 121.071 31.434Z" fill="#C39628"/>
<path d="M115.795 23.5347C118.797 30.3731 123.861 27.976 128.709 31.2396C129.523 31.7879 130.833 31.1724 130.66 30.2059C129.49 23.6883 126.624 21.072 116.562 22.2303C115.932 22.3028 115.54 22.9542 115.795 23.5347Z" fill="#C39628"/>
</svg>
