<svg width="92" height="92" viewBox="0 0 92 92" fill="none" xmlns="http://www.w3.org/2000/svg">
<path d="M35 30C35 31.6569 36.3431 33 38 33C39.6569 33 41 31.6569 41 30C41 28.3431 39.6569 27 38 27C36.3431 27 35 28.3431 35 30ZM35 30H7M29 38C29 39.6569 30.3431 41 32 41C33.6569 41 35 39.6569 35 38C35 36.3431 33.6569 35 32 35C30.3431 35 29 36.3431 29 38ZM29 38H7M41 51C42.6569 51 44 49.6569 44 48C44 46.3431 42.6569 45 41 45C39.3431 45 38 46.3431 38 48C38 49.6569 39.3431 51 41 51ZM41 51V57.7574C41 58.553 41.3161 59.3161 41.8787 59.8787L45.1213 63.1213C45.6839 63.6839 46 64.447 46 65.2426V85M60 62C60 63.6569 58.6569 65 57 65C55.3431 65 54 63.6569 54 62C54 60.3431 55.3431 59 57 59C58.6569 59 60 60.3431 60 62ZM60 62H85M7 30C7 31.6569 5.65685 33 4 33C2.34315 33 1 31.6569 1 30C1 28.3431 2.34315 27 4 27C5.65685 27 7 28.3431 7 30ZM85 30C85 31.6569 86.3431 33 88 33C89.6569 33 91 31.6569 91 30C91 28.3431 89.6569 27 88 27C86.3431 27 85 28.3431 85 30ZM85 30H72M62 85C60.3431 85 59 86.3431 59 88C59 89.6569 60.3431 91 62 91C63.6569 91 65 89.6569 65 88C65 86.3431 63.6569 85 62 85ZM62 85V71.5M62 7C63.6569 7 65 5.65685 65 4C65 2.34315 63.6569 1 62 1C60.3431 1 59 2.34315 59 4C59 5.65685 60.3431 7 62 7ZM62 7V20.5V35.0161C62 35.6553 61.7958 36.2778 61.4173 36.7928L59.5 39.4013M7 38C7 39.6569 5.65685 41 4 41C2.34315 41 1 39.6569 1 38C1 36.3431 2.34315 35 4 35C5.65685 35 7 36.3431 7 38ZM85 38C85 39.6569 86.3431 41 88 41C89.6569 41 91 39.6569 91 38C91 36.3431 89.6569 35 88 35C86.3431 35 85 36.3431 85 38ZM85 38H72M54 85C52.3431 85 51 86.3431 51 88C51 89.6569 52.3431 91 54 91C55.6569 91 57 89.6569 57 88C57 86.3431 55.6569 85 54 85ZM54 85V71.5M54 7C55.6569 7 57 5.65685 57 4C57 2.34315 55.6569 1 54 1C52.3431 1 51 2.34315 51 4C51 5.65685 52.3431 7 54 7ZM54 7V20M7 46C7 47.6569 5.65685 49 4 49C2.34315 49 1 47.6569 1 46C1 44.3431 2.34315 43 4 43C5.65685 43 7 44.3431 7 46ZM7 46H20M85 46C85 47.6569 86.3431 49 88 49C89.6569 49 91 47.6569 91 46C91 44.3431 89.6569 43 88 43C86.3431 43 85 44.3431 85 46ZM85 46H72M46 85C44.3431 85 43 86.3431 43 88C43 89.6569 44.3431 91 46 91C47.6569 91 49 89.6569 49 88C49 86.3431 47.6569 85 46 85ZM46 7C47.6569 7 49 5.65685 49 4C49 2.34315 47.6569 1 46 1C44.3431 1 43 2.34315 43 4C43 5.65685 44.3431 7 46 7ZM46 7V20M7 54C7 55.6569 5.65685 57 4 57C2.34315 57 1 55.6569 1 54C1 52.3431 2.34315 51 4 51C5.65685 51 7 52.3431 7 54ZM7 54H20M85 54C85 55.6569 86.3431 57 88 57C89.6569 57 91 55.6569 91 54C91 52.3431 89.6569 51 88 51C86.3431 51 85 52.3431 85 54ZM85 54H60.6619C59.5744 54 58.5074 53.7045 57.5749 53.145L54.5987 51.5M38 85C36.3431 85 35 86.3431 35 88C35 89.6569 36.3431 91 38 91C39.6569 91 41 89.6569 41 88C41 86.3431 39.6569 85 38 85ZM38 85V71.5M38 7C39.6569 7 41 5.65685 41 4C41 2.34315 39.6569 1 38 1C36.3431 1 35 2.34315 35 4C35 5.65685 36.3431 7 38 7ZM38 7V20M7 62C7 63.6569 5.65685 65 4 65C2.34315 65 1 63.6569 1 62C1 60.3431 2.34315 59 4 59C5.65685 59 7 60.3431 7 62ZM7 62H20M85 62C85 63.6569 86.3431 65 88 65C89.6569 65 91 63.6569 91 62C91 60.3431 89.6569 59 88 59C86.3431 59 85 60.3431 85 62ZM30 85C28.3431 85 27 86.3431 27 88C27 89.6569 28.3431 91 30 91C31.6569 91 33 89.6569 33 88C33 86.3431 31.6569 85 30 85ZM30 85V71.5M30 7C31.6569 7 33 5.65685 33 4C33 2.34315 31.6569 1 30 1C28.3431 1 27 2.34315 27 4C27 5.65685 28.3431 7 30 7ZM30 7V20M30 20H26C22.6863 20 20 22.6863 20 26V66C20 69.3137 22.6863 71.5 26 71.5H29H30M30 20H38M38 20H46M46 20H54M54 20H66C69.3137 20 72 22.6863 72 26V66C72 69.3137 69.3137 71.5 66 71.5H62M54 20V27.6009C54 28.5067 53.6926 29.3857 53.128 30.0941L51 32.7639M59.5 39.4013C59.0587 39.1461 58.5464 39 58 39C56.3431 39 55 40.3431 55 42C55 43.6569 56.3431 45 58 45C59.6569 45 61 43.6569 61 42C61 40.8896 60.3967 39.9201 59.5 39.4013ZM51 32.7639C50.4692 32.2889 49.7684 32 49 32C47.3431 32 46 33.3431 46 35C46 36.6569 47.3431 38 49 38C50.6569 38 52 36.6569 52 35C52 34.1115 51.6137 33.3132 51 32.7639ZM30 71.5H38M38 71.5V66.2837C38 65.4638 37.6645 64.6797 37.0715 64.1136L34.5 61.6589M38 71.5H54M34.5 61.6589C34.8159 61.1837 35 60.6134 35 60C35 58.3431 33.6569 57 32 57C30.3431 57 29 58.3431 29 60C29 61.6569 30.3431 63 32 63C33.0435 63 33.9625 62.4672 34.5 61.6589ZM54 71.5H62M55 50C55 51.6569 53.6569 53 52 53C50.3431 53 49 51.6569 49 50C49 48.3431 50.3431 47 52 47C53.6569 47 55 48.3431 55 50Z" stroke="white" stroke-opacity="0.1" stroke-width="2"/>
</svg>
